<ttFont>
          <CharString index="0">
            4 -63 rlineto
            111 313 hlineto
            144 -24 61 -195 -64 -68 -5 -10 -59 vhcurveto
            -94 vlineto
            4 30 77 5 43 hhcurveto
            120 20 -5 -95 hvcurveto
            -20 vlineto
            2 -54 -83 2 -26 hhcurveto
            -124 -35 -43 -117 hvcurveto
            return
          </CharString>
          <CharString index="1">
            20 6 rlineto
            48 14 18 14 51 vvcurveto
            80 -51 7 -85 -37 -52 -4 -5 -33 vhcurveto
            -58 vlineto
            3 30 48 2 25 hhcurveto
            56 20 0 -33 -21 -6 -5 -38 -10 hvcurveto
            -20 -6 rlineto
            -37 -10 -9 -10 -40 vvcurveto
            return
          </CharString>
          <CharString index="2">
            rmoveto
            -57 callsubr
            -45 callsubr
            -277 -12 -73 callgsubr
            12 -72 277 62 callsubr
            -155 -6 5 239 239 6 5 155 155 7 -5 -239 -239 -7 -5 -155 hvcurveto
            return
          </CharString>
          <CharString index="3">
            rmoveto
            218 13 58 206 206 -13 56 -218 -17 callsubr
            hvcurveto
            100 47 callgsubr
            return
          </CharString>
          <CharString index="4">
            rmoveto
            -72 hlineto
            -48 -2 -28 -73 -73 0 28 48 vhcurveto
            -71 hlineto
            -86 12 -61 132 133 14 61 86 vhcurveto
            return
          </CharString>
          <CharString index="5">
            -103 -12 -45 -94 -88 -10 10 131 vhcurveto
            270 -120 -319 vlineto
            -130 23 -69 140 84 49 24 49 25 vhcurveto
            8 hlineto
            return
          </CharString>
          <CharString index="6">
            -147 -4 81 callsubr
            -6 153 callgsubr
            73 callgsubr
            return
          </CharString>
          <CharString index="7">
            10 -37 -41 11 -40 hhcurveto
            -79 -5 -45 -85 hvcurveto
            67 callsubr
            return
          </CharString>
          <CharString index="8">
            -110 0 19 145 145 0 17 110 110 0 -17 -145 -145 0 -19 -110 hvcurveto
            return
          </CharString>
          <CharString index="9">
            rmoveto
            119 hlineto
            98 -32 callsubr
            7 -81 vlineto
            -77 -88 -76 88 rlineto
            -80 -7 hlineto
            return
          </CharString>
          <CharString index="10">
            rmoveto
            5 vlineto
            -87 122 rlineto
            -104 -5 hlineto
            117 -122 rlineto
            265 hmoveto
            5 vlineto
            -87 122 rlineto
            -103 -5 hlineto
            116 -122 rlineto
            return
          </CharString>
          <CharString index="11">
            rmoveto
            255 4 64 239 hvcurveto
            100 -258 -105 131 -27 vlineto
            -151 -5 -13 -134 -140 -26 20 225 240 32 4 201 35 68 -6 -9 70 vhcurveto
            101 vlineto
            13 -67 -92 9 -67 hhcurveto
            -251 -57 -73 callgsubr
            44 162 callgsubr
            return
          </CharString>
          <CharString index="12">
            rmoveto
            -8 103 -34 25 -69 16 rrcurveto
            4 vlineto
            76 19 42 39 123 vvcurveto
            123 -47 65 -143 vhcurveto
            -339 -688 128 258 156 hlineto
            102 4 -40 -66 5 hvcurveto
            11 -152 rlineto
            127 hlineto
            -252 366 rmoveto
            -153 214 156 hlineto
            107 8 -26 -81 -77 -16 -30 -102 hvcurveto
            return
          </CharString>
          <CharString index="13">
            465 108 -337 185 290 108 -290 179 337 108 -465 hlineto
            return
          </CharString>
          <CharString index="14">
            -37 0 -11 -28 -23 -29 8 8 -31 vhcurveto
            return
          </CharString>
          <CharString index="15">
            -4 -65 rlineto
            -7 hlineto
            60 -31 -64 13 -58 hhcurveto
            -130 -49 -61 -202 -200 47 -58 131 67 55 14 52 28 hvcurveto
            6 -27 hlineto
            -120 -11 -22 -140 -44 -63 2 2 -39 vhcurveto
            -93 vlineto
            return
          </CharString>
          <CharString index="16">
            rmoveto
            88 5 hlineto
            -96 -56 callsubr
            -123 -5 hlineto
            return
          </CharString>
          <CharString index="17">
            -10 37 41 -11 40 hhcurveto
            78 5 45 85 hvcurveto
            return
          </CharString>
          <CharString index="18">
            rmoveto
            103 vlineto
            -6 -38 -58 -4 -44 hhcurveto
            -176 -13 19 225 225 13 19 176 32 54 -4 -6 50 hvcurveto
            101 vlineto
            10 -41 -70 7 -57 hhcurveto
            -249 -36 -73 callgsubr
            36 -72 249 55 72 6 9 45 hvcurveto
            endchar
          </CharString>
          <CharString index="19">
            -73 callsubr
            20 6 rlineto
            48 14 18 14 51 vvcurveto
            80 -51 7 -85 -37 -52 -4 -5 -33 vhcurveto
            -58 vlineto
            3 30 48 2 25 hhcurveto
            56 20 0 -33 return
          </CharString>
          <CharString index="20">
            rmoveto
            -119 -395 rlineto
            -9 hlineto
            -121 395 rlineto
            -125 hlineto
            170 -510 rlineto
            36 hlineto
            -63 -189 rlineto
            123 hlineto
            231 699 rlineto
            endchar
          </CharString>
          <CharString index="21">
            93 vlineto
            -5 -47 -66 -4 -43 hhcurveto
            -142 -6 18 106 hvcurveto
            return
          </CharString>
          <CharString index="22">
            rmoveto
            105 97 -105 hlineto
            196 -97 rmoveto
            105 97 -105 hlineto
            return
          </CharString>
          <CharString index="23">
            888 -103 callsubr
            return
          </CharString>
          <CharString index="24" raw="1">
            240a0e   
          </CharString>
          <CharString index="25">
            76 21 -21 212 113 263 108 return
          </CharString>
          <CharString index="26">
            159 hlineto
            173 688 rlineto
            -128 hlineto
            -122 -537 rlineto
            -5 hlineto
            -144 537 rlineto
            -134 hlineto
            -141 -537 rlineto
            -5 hlineto
            -130 537 rlineto
            -129 hlineto
            173 -688 rlineto
            159 hlineto
            return
          </CharString>
          <CharString index="27">
            -888 -99 callgsubr
          </CharString>
          <CharString index="28">
            59 21 -76 callgsubr
            return
          </CharString>
          <CharString index="29">
            123 688 -123 -448 -4 hlineto
            -64 callsubr
            return
          </CharString>
          <CharString index="30">
            516 107 -357 hlineto
            353 481 rlineto
            100 -501 -108 338 vlineto
            -349 -477 rlineto
            return
          </CharString>
          <CharString index="31">
            57 75 8 63 34 hvcurveto
            7 hlineto
            return
          </CharString>
          <CharString index="32">
            -306 -511 rmoveto
            -99 callsubr
            return
          </CharString>
          <CharString index="33">
            rmoveto
            -30 vlineto
            -49 -7 -14 -54 vhcurveto
            return
          </CharString>
          <CharString index="34">
            20 3 3 34 10 vhcurveto
            return
          </CharString>
          <CharString index="35">
            rmoveto
            -76 callsubr
            return
          </CharString>
          <CharString index="36">
            -8 -65 callgsubr
            return
          </CharString>
          <CharString index="37">
            rmoveto
            111 510 -120 -263 hlineto
            return
          </CharString>
          <CharString index="38">
            rmoveto
            -102 vlineto
            260 1 11 8 285 vvcurveto
            394 -128 -430 vlineto
            -145 0 -9 -143 -2 vhcurveto
            endchar
          </CharString>
          <CharString index="39">
            21 11 8 23 9 vhcurveto
            43 17 27 10 26 10 rrcurveto
            40 16 23 32 62 vvcurveto
            97 -61 8 -73 -40 -55 -5 -7 -38 vhcurveto
            -70 vlineto
            5 37 48 4 26 hhcurveto
            56 16 -3 -34 -27 -6 -7 -30 -12 hvcurveto
            -48 -19 -33 -14 -23 -11 rrcurveto
            -45 -22 -5 -26 -78 vvcurveto
            -54 274 return
          </CharString>
          <CharString index="40">
            -180 -179 -107 callgsubr
            return
          </CharString>
          <CharString index="41">
            108 185 -26 callsubr
            return
          </CharString>
          <CharString index="42">
            86 callgsubr
            69 -140 -84 -49 -24 -49 -25 vhcurveto
            -8 hlineto
            return
          </CharString>
          <CharString index="43">
            -292 448 rlineto
            -133 -688 123 466 4 hlineto
            return
          </CharString>
          <CharString index="44">
            rmoveto
            77 -88 rlineto
            81 7 hlineto
            -98 -32 callsubr
            -119 hlineto
            -97 -137 rlineto
            -7 80 vlineto
            return
          </CharString>
          <CharString index="45">
            -8 rmoveto
            229 47 73 119 116 -44 30 -81 19 hvcurveto
            4 vlineto
            hintmask 11101100
            81 17 38 45 100 vvcurveto
            118 -59 63 -211 -211 -59 -63 -118 -100 38 -45 81 -17 vhcurveto
            -4 vlineto
            hintmask 11110010
            -81 -19 -44 -30 -116 vvcurveto
            -119 46 -73 230 vhcurveto
            hintmask 11101100
            409 vmoveto
            -116 -23 14 79 81 21 14 118 117 23 -14 -81 -79 -25 -14 -115 hvcurveto
            hintmask 11110010
            -301 vmoveto
            -114 -31 8 87 89 26 11 119 117 29 -11 -89 -87 -33 -8 -113 hvcurveto
            endchar
          </CharString>
          <CharString index="46">
            103 12 45 94 88 10 -10 -131 vhcurveto
            return
          </CharString>
          <CharString index="47">
            -218 -13 -56 -206 return
          </CharString>
          <CharString index="48">
            75 -47 callgsubr
            return
          </CharString>
          <CharString index="49">
            -614 -102 callgsubr
          </CharString>
          <CharString index="50">
            277 13 72 280 return
          </CharString>
          <CharString index="51">
            138 rlineto
            return
          </CharString>
          <CharString index="52">
            -116 0 125 463 108 hstemhm
            134 134 -123 111 62 -10 callsubr
            hintmask 11011000
            145 217 rmoveto
            111 44 hlineto
            58 5 1 60 20 vhcurveto
            48 16 rlineto
            51 18 26 48 86 vvcurveto
            131 -53 57 -152 -60 -85 -7 -10 -59 vhcurveto
            -102 vlineto
            6 47 68 5 41 hhcurveto
            93 32 -2 -75 -67 -10 -8 -55 -19 hvcurveto
            -42 -14 rlineto
            -43 -15 -23 -22 -75 vvcurveto
            hintmask 11101000
            -11 -291 -92 callgsubr
          </CharString>
          <CharString index="53">
            -4 65 rlineto
            -111 -510 120 263 hlineto
            return
          </CharString>
          <CharString index="54">
            -72 callsubr
            hintmask 0111110010000000
            -107 callsubr
            hintmask 1011110010000000
            -100 callgsubr
            endchar
          </CharString>
          <CharString index="55">
            32 12 19 25 49 vvcurveto
            67 -36 36 -111 -34 -49 -5 -7 -37 vhcurveto
            -69 vlineto
            5 40 40 3 27 hhcurveto
            57 18 -5 -38 -37 -18 -7 -30 hvcurveto
            return
          </CharString>
          <CharString index="56">
            rmoveto
            472 93 vlineto
            173 10 -2 -234 -235 -8 -1 -175 hvcurveto
            return
          </CharString>
          <CharString index="57">
            hstemhm
            -59 callsubr
            return
          </CharString>
          <CharString index="58">
            rmoveto
            259 106 -259 hlineto
            return
          </CharString>
          <CharString index="59">
            6 -30 -36 2 -45 hhcurveto
            -17 callsubr
            218 13 58 206 hvcurveto
            return
          </CharString>
          <CharString index="60">
            rmoveto
            -65 callsubr
            hintmask 11011100
            -54 callsubr
            hintmask 10111100
            2 callsubr
          </CharString>
          <CharString index="61">
            -8 -25 callgsubr
            return
          </CharString>
          <CharString index="62">
            280 -13 72 -277 return
          </CharString>
          <CharString index="63">
            -8 rmoveto
            226 46 80 112 112 -47 37 -78 16 hvcurveto
            4 vlineto
            hintmask 11110000
            77 17 41 45 100 vvcurveto
            116 -61 65 -203 -65 -89 -8 -12 -56 vhcurveto
            -101 vlineto
            7 50 80 6 58 hhcurveto
            119 37 -5 -89 -78 -39 -14 -68 hvcurveto
            -122 -108 122 hlineto
            hintmask 11101000
            86 28 -21 -78 -91 -47 -4 -106 -48 -84 5 7 -70 hvcurveto
            -100 vlineto
            -11 56 91 -9 66 hhcurveto
            endchar
          </CharString>
          <CharString index="64">
            -63 callsubr
            299 -345 -105 callgsubr
            return
          </CharString>
          <CharString index="65">
            121 vstem
            130 599 52 callsubr
            -614 -104 callsubr
            return
          </CharString>
          <CharString index="66">
            rmoveto
            -39 callsubr
            return
          </CharString>
          <CharString index="67">
            rmoveto
            84 44 15 51 20 hvcurveto
            12 31 4 41 57 vvcurveto
            55 -2 39 -9 31 vhcurveto
            59 -17 -44 8 -87 hhcurveto
            -123 -25 -33 -96 -95 41 -15 86 65 21 16 10 10 hvcurveto
            3 hlineto
            -97 -11 -15 -87 -24 -43 3 4 -39 vhcurveto
            -58 vlineto
            -7 38 52 -4 31 hhcurveto
            8 209 rmoveto
            -62 -12 5 55 53 14 3 60 57 16 -4 -61 -39 -6 -12 -67 hvcurveto
            endchar
          </CharString>
          <CharString index="68">
            120 510 -120 hlineto
            return
          </CharString>
          <CharString index="69">
            rmoveto
            127 28 37 68 62 -26 20 -45 9 hvcurveto
            2 vlineto
            hintmask 11110000
            44 10 23 24 56 vvcurveto
            69 -36 30 -114 -36 -52 -5 -5 -33 vhcurveto
            -59 vlineto
            4 32 43 2 31 hhcurveto
            64 20 -4 -44 -42 -21 -8 -36 hvcurveto
            -70 -61 hlineto
            hintmask 11101000
            70 hlineto
            45 15 -10 -43 -46 -25 -4 -57 -27 -47 3 3 -39 hvcurveto
            -58 vlineto
            -6 35 51 -4 36 hhcurveto
            endchar
          </CharString>
          <CharString index="70">
            -41 callsubr
            endchar
          </CharString>
          <CharString index="71">
            -21 688 -20 return
          </CharString>
          <CharString index="72">
            -62 callgsubr
            -50 callsubr
            hintmask 10111000
            399 510 rmoveto
            -263 -31 callsubr
            270 -120 -699 120 vlineto
            hintmask 01111000
            188 vlineto
            hintmask 10111000
            -5 14 14 -2 15 hhcurveto
            84 49 24 49 25 hvcurveto
            8 hlineto
            hintmask 01111000
            127 callsubr
            510 hlineto
            endchar
          </CharString>
          <CharString index="73">
            107 -99 99 411 -20 return
          </CharString>
          <CharString index="74">
            60 0 108 191 98 183 26 callgsubr
            -291 -67 -98 67 hlineto
            221 -191 rmoveto
            -93 191 94 98 -94 183 93 hlineto
            173 10 -2 -234 -235 -8 -1 -175 hvcurveto
            endchar
          </CharString>
          <CharString index="75">
            137 rlineto
            return
          </CharString>
          <CharString index="76">
            vlineto
            -103 -12 -45 -94 -88 -10 10 131 vhcurveto
            return
          </CharString>
          <CharString index="77">
            -21 160 108 return
          </CharString>
          <CharString index="78">
            rmoveto
            66 hlineto
            -73 callsubr
            return
          </CharString>
          <CharString index="79">
            8 62 25 59 24 63 25 rrcurveto
            84 34 39 41 124 vvcurveto
            166 -107 19 -131 -75 -99 -9 -12 -61 vhcurveto
            -101 vlineto
            8 66 82 6 45 hhcurveto
            119 33 -8 -78 -57 -11 -14 -67 -27 hvcurveto
            -55 -22 -55 -23 -51 -21 rrcurveto
            -111 -45 -9 -50 -155 vvcurveto
            -88 487 109 -363 vlineto
            endchar
          </CharString>
          <CharString index="80">
            46 rmoveto
            32 50 rlineto
            -83 52 -55 91 105 vvcurveto
            104 56 92 82 51 vhcurveto
            -32 51 rlineto
            -99 -62 -67 -111 -125 vvcurveto
            -126 67 -110 99 -62 vhcurveto
            return
          </CharString>
          <CharString index="81">
            108 179 108 return
          </CharString>
          <CharString index="82">
            hhcurveto
            -215 -44 -55 -177 -167 70 -32 158 116 40 29 20 18 hvcurveto
            6 hlineto
            -183 -18 -31 -164 -43 -78 6 8 -67 vhcurveto
            -101 vlineto
            -12 68 90 -9 56 hhcurveto
            15 381 rmoveto
            -117 -24 8 102 96 26 9 115 106 32 -7 -117 -66 -12 -25 -126 hvcurveto
            endchar
          </CharString>
          <CharString index="83">
            87 128 return
          </CharString>
          <CharString index="84">
            56 121 return
          </CharString>
          <CharString index="85">
            111 316 rmoveto
            83 372 -56 hlineto
            -100 -51 rlineto
            -75 vlineto
            73 31 rlineto
            return
          </CharString>
          <CharString index="86">
            -40 -206 100 103 105 310 98 -98 106 return
          </CharString>
          <CharString index="87">
            128 vstem
            return
          </CharString>
          <CharString index="88">
            hstemhm
            -14 callsubr
            return
          </CharString>
          <CharString index="89">
            -20 callsubr
            515 273 rmoveto
            89 32 11 101 66 vvcurveto
            131 -28 85 -176 vhcurveto
            -324 -688 128 256 176 hlineto
            100 -256 rlineto
            136 hlineto
            -269 364 rmoveto
            -143 216 144 hlineto
            120 8 -23 -85 -82 -10 -26 -119 hvcurveto
            return
          </CharString>
          <CharString index="90">
            -60 callsubr
            -56 callgsubr
            return
          </CharString>
          <CharString index="91">
            rmoveto
            32 51 rlineto
            -48 31 -33 53 62 vvcurveto
            61 33 54 49 31 vhcurveto
            -32 51 rlineto
            -66 -41 -44 -73 -83 vvcurveto
            -83 44 -73 65 -41 vhcurveto
            return
          </CharString>
          <CharString index="92">
            65 128 return
          </CharString>
          <CharString index="93">
            75 120 return
          </CharString>
          <CharString index="94">
            630 rmoveto
            124 113 -124 hlineto
            return
          </CharString>
          <CharString index="95">
            230 hlineto
            292 10 64 280 return
          </CharString>
          <CharString index="96">
            -355 -9 callgsubr
            return
          </CharString>
          <CharString index="97">
            128 hintmask 00000000
            return
          </CharString>
          <CharString index="98">
            108 588 -20 return
          </CharString>
          <CharString index="99">
            198 -35 -103 callsubr
            return
          </CharString>
          <CharString index="100">
            889 rmoveto
            -64 hlineto
            -93 callsubr
            return
          </CharString>
          <CharString index="101">
            hintmask 0000000000000000
            return
          </CharString>
          <CharString index="102">
            -46 -10 -25 -18 -63 vvcurveto
            -69 28 -36 129 vhcurveto
            return
          </CharString>
          <CharString index="103">
            58 12 9 60 return
          </CharString>
          <CharString index="104">
            -142 -6 20 106 hvcurveto
            324 hlineto
            -216 202 rmoveto
            78 23 -14 -109 hvcurveto
            -209 hlineto
            101 1 12 22 95 hhcurveto
            -230 -211 rmoveto
            -33 -4 -24 -8 -18 vhcurveto
            -35 -16 -33 -9 -50 hhcurveto
            -81 -13 9 56 hvcurveto
            return
          </CharString>
          <CharString index="105">
            100 callgsubr
            323 -20 callsubr
            return
          </CharString>
          <CharString index="106">
            57 callsubr
            193 hmoveto
            -54 callgsubr
            endchar
          </CharString>
          <CharString index="107">
            118 100 -118 148 -120 -148 -100 -100 100 return
          </CharString>
          <CharString index="108">
            45 -8 105 185 105 201 108 return
          </CharString>
          <CharString index="109">
            -61 callsubr
            endchar
          </CharString>
          <CharString index="110">
            425 112 -297 576 -128 hlineto
            return
          </CharString>
          <CharString index="111">
            -133 -14 -61 -86 return
          </CharString>
          <CharString index="112">
            -20 vlineto
            0 -128 4 -35 -124 -35 -43 -117 -111 59 -39 115 62 81 5 56 49 vhcurveto
            -43 32 58 -18 108 101 callgsubr
            return
          </CharString>
          <CharString index="113">
            rmoveto
            -418 vlineto
            -147 -4 -23 -137 vhcurveto
            hintmask 11101001
            -137 -6 23 147 hvcurveto
            50 callgsubr
          </CharString>
          <CharString index="114">
            393 hmoveto
            136 hlineto
            -191 264 188 246 rlineto
            -131 hlineto
            -153 -204 rlineto
            -47 return
          </CharString>
          <CharString index="115">
            -8 rmoveto
            215 44 55 177 167 -70 32 -158 -116 -40 -29 -20 -18 hvcurveto
            -6 hlineto
            183 18 31 164 43 78 -6 -8 67 vhcurveto
            101 vlineto
            12 -68 -90 9 -56 hhcurveto
            return
          </CharString>
          <CharString index="116">
            -20 callsubr
            72 callgsubr
            return
          </CharString>
          <CharString index="117">
            4 -64 rlineto
            111 743 -120 -290 -7 hlineto
            return
          </CharString>
          <CharString index="118">
            rmoveto
            128 119 -52 17 hlineto
            52 14 10 51 vhcurveto
            51 vlineto
            -125 -16 -30 -135 hvcurveto
            return
          </CharString>
          <CharString index="119">
            -20 callsubr
            510 hmoveto
            149 hlineto
            -259 358 256 330 rlineto
            -141 hlineto
            -218 -284 rlineto
            -82 284 -128 -688 128 296 82 hlineto
            return
          </CharString>
          <CharString index="120">
            hmoveto
            128 148 95 108 -95 199 -95 hlineto
            -33 -199 rlineto
            -205 hlineto
            260 432 rlineto
            -140 hlineto
            -260 -444 rlineto
            -96 345 vlineto
            endchar
          </CharString>
          <CharString index="121">
            120 263 hlineto
            -61 callsubr
            return
          </CharString>
          <CharString index="122">
            234 -8 rmoveto
            60 63 12 60 31 hvcurveto
            7 hlineto
            return
          </CharString>
          <CharString index="123">
            -56 callgsubr
            vhcurveto
            hintmask 11111010
            100 47 callgsubr
            endchar
          </CharString>
          <CharString index="124">
            188 rlineto
            65 -112 -65 vlineto
            return
          </CharString>
          <CharString index="125">
            rmoveto
            33 callsubr
            -137 rlineto
            return
          </CharString>
          <CharString index="126">
            101 -200 92 129 104 callsubr
            688 rmoveto
            -448 -4 vlineto
            -292 448 rlineto
            -133 return
          </CharString>
          <CharString index="127">
            203 0 135 179 196 0 -20 return
          </CharString>
          <CharString index="128">
            53 21 68 callgsubr
            return
          </CharString>
          <CharString index="129">
            198 -85 rmoveto
            142 285 -97 -33 rlineto
            277 vlineto
            97 -33 -142 285 -143 -285 98 33 rlineto
            -277 vlineto
            -98 33 rlineto
            return
          </CharString>
          <CharString index="130">
            hstem
            79 callgsubr
            vstem
            return
          </CharString>
          <CharString index="131">
            hstem
            -59 callsubr
            vstem
            return
          </CharString>
          <CharString index="132">
            -111 53 -39 101 vhcurveto
            57 97 rmoveto
            -81 -13 9 56 hvcurveto
            hintmask 1011111010000000
            -4 callsubr
            vhcurveto
            92 callsubr
            return
          </CharString>
          <CharString index="133">
            rmoveto
            32 51 rlineto
            -14 9 -10 16 20 vvcurveto
            20 10 16 15 9 vhcurveto
            -32 51 rlineto
            -32 -20 -21 -35 -41 vvcurveto
            -42 21 -34 31 -20 vhcurveto
            return
          </CharString>
          <CharString index="134">
            143 38 callsubr
            return
          </CharString>
          <CharString index="135">
            778 rmoveto
            105 97 -105 hlineto
            return
          </CharString>
          <CharString index="136">
            87 123 306 123 return
          </CharString>
          <CharString index="137">
            71 106 143 hstem
            -311 -15 callgsubr
            vstem
            return
          </CharString>
          <CharString index="138">
            vlineto
            -41 -6 -13 -84 vhcurveto
            return
          </CharString>
          <CharString index="139">
            -84 callsubr
            hintmask 11111001
            return
          </CharString>
          <CharString index="140">
            98 -32 callsubr
            7 -81 vlineto
            -77 -88 -76 88 rlineto
            -80 -7 hlineto
            97 return
          </CharString>
          <CharString index="141">
            516 hmoveto
            -78 callsubr
            return
          </CharString>
          <CharString index="142">
            hhcurveto
            -8 108 rmoveto
            -106 -32 7 117 66 12 25 126 117 24 -8 -102 -96 -26 -9 -115 hvcurveto
            endchar
          </CharString>
          <CharString index="143">
            86 7 14 30 82 vvcurveto
            22 vlineto
            return
          </CharString>
          <CharString index="144">
            81 -78 81 147 80 -77 81 return
          </CharString>
          <CharString index="145">
            hstemhm
            79 callgsubr
            return
          </CharString>
          <CharString index="146">
            80 7 14 31 80 vvcurveto
            22 vlineto
            return
          </CharString>
          <CharString index="147">
            5 -29 -35 2 -43 hhcurveto
            -60 callsubr
            -119 4 -70 46 -38 hvcurveto
            -50 -84 rlineto
            91 hlineto
            33 55 rlineto
            return
          </CharString>
          <CharString index="148">
            1062 rmoveto
            -64 hlineto
            -93 callsubr
            return
          </CharString>
          <CharString index="149">
            -751 -72 callsubr
            return
          </CharString>
          <CharString index="150">
            hstem
            29 callsubr
            vstem
            return
          </CharString>
          <CharString index="151">
            120 743 -120 hlineto
            return
          </CharString>
          <CharString index="152">
            280 -10 64 -292 return
          </CharString>
          <CharString index="153">
            -31 -8 107 -99 99 364 47 0 121 callsubr
            13 81 hintmask 10011110
            return
          </CharString>
          <CharString index="154">
            vmoveto
            -230 -5 11 289 288 5 11 230 231 5 -11 -288 -289 -5 -11 -231 hvcurveto
            return
          </CharString>
          <CharString index="155">
            -228 89 callsubr
            45 352 vstem
            397 hmoveto
            696 vlineto
            -207 -145 -143 -205 return
          </CharString>
          <CharString index="156">
            11 571 rmoveto
            95 callsubr
            30 135 hvcurveto
            58 -128 -93 52 -17 vlineto
            -52 -14 -10 -51 vhcurveto
            return
          </CharString>
          <CharString index="157">
            rmoveto
            -54 vlineto
            130 18 31 142 hvcurveto
            88 -134 -125 52 -17 vlineto
            -55 -14 -10 -52 vhcurveto
            endchar
          </CharString>
          <CharString index="158">
            -68 vlineto
            -7 37 49 -5 35 hhcurveto
            126 26 45 65 hvcurveto
            return
          </CharString>
          <CharString index="159">
            -107 callgsubr
            157 return
          </CharString>
          <CharString index="160">
            rmoveto
            52 -17 hlineto
            -34 -14 -6 -51 vhcurveto
            95 callsubr
            26 117 90 callsubr
            vlineto
            endchar
          </CharString>
          <CharString index="161">
            hstemhm
            40 128 76 128 80 128 return
          </CharString>
          <CharString index="162">
            hstemhm
            47 117 return
          </CharString>
          <CharString index="163">
            688 -123 -448 -4 vlineto
            -64 callsubr
            return
          </CharString>
          <CharString index="164">
            rmoveto
            -54 callgsubr
            return
          </CharString>
          <CharString index="165">
            66 -730 -70 callsubr
            return
          </CharString>
          <CharString index="166">
            -200 92 129 124 callgsubr
            return
          </CharString>
          <CharString index="167">
            82 callsubr
            323 128 return
          </CharString>
          <CharString index="168">
            65 248 64 return
          </CharString>
          <CharString index="169">
            hvcurveto
            108 vmoveto
            return
          </CharString>
          <CharString index="170">
            -31 -200 92 129 113 callsubr
            hintmask 11011100
            return
          </CharString>
          <CharString index="171">
            125 260 81 callgsubr
            64 94 callgsubr
            return
          </CharString>
          <CharString index="172">
            -258 232 106 hstem
            54 259 vstem
            54 232 -49 callsubr
            endchar
          </CharString>
          <CharString index="173">
            rmoveto
            97 vlineto
            -297 111 297 110 rlineto
            98 vlineto
            -400 -158 rlineto
            -101 vlineto
            return
          </CharString>
          <CharString index="174">
            65 hlineto
            37 0 11 28 -70 callgsubr
            vhcurveto
            return
          </CharString>
          <CharString index="175">
            -21 258 136 callgsubr
            return
          </CharString>
          <CharString index="176">
            400 95 -400 hlineto
            return
          </CharString>
          <CharString index="177">
            -4 89 116 callsubr
            return
          </CharString>
          <CharString index="178">
            71 219 62 hstemhm
            -311 80 callgsubr
            hintmask 00000000
            hintmask 11111000
            -223 return
          </CharString>
          <CharString index="179">
            rmoveto
            65 45 45 65 65 -45 45 -65 -65 -45 -45 -65 -65 45 -45 65 hvcurveto
            60 vmoveto
            return
          </CharString>
          <CharString index="180">
            vvcurveto
            -44 22 -37 90 13 16 1 2 25 vhcurveto
            70 vlineto
            -17 -1 rlineto
            -37 -10 15 21 return
          </CharString>
          <CharString index="181">
            90 314 rlineto
            8 hlineto
            endchar
          </CharString>
          <CharString index="182">
            30 143 hstemhm
            return
          </CharString>
          <CharString index="183">
            -52 31 54 -13 68 hhcurveto
            127 47 62 202 202 -49 60 -129 -60 return
          </CharString>
          <CharString index="184">
            -190 rmoveto
            115 hlineto
            38 193 rlineto
            5 -82 vlineto
            -71 -193 rlineto
            endchar
          </CharString>
          <CharString index="185">
            608 -29 callsubr
            return
          </CharString>
          <CharString index="186">
            -15 109 callsubr
            return
          </CharString>
          <CharString index="187">
            56 129 251 129 return
          </CharString>
          <CharString index="188">
            -23 138 callgsubr
            return
          </CharString>
          <CharString index="189">
            hstemhm
            -15 callsubr
            return
          </CharString>
          <CharString index="190">
            143 hstem
            -239 219 vstem
            return
          </CharString>
          <CharString index="191">
            rmoveto
            29 callgsubr
            return
          </CharString>
          <CharString index="192">
            144 75 callsubr
            -334 return
          </CharString>
          <CharString index="193">
            51 79 119 hstem
            64 128 return
          </CharString>
          <CharString index="194">
            144 hstem
            -334 314 vstem
            return
          </CharString>
          <CharString index="195">
            121 220 121 return
          </CharString>
          <CharString index="196">
            21 -21 696 -20 hstem
            return
          </CharString>
          <CharString index="197">
            hvcurveto
            84 -128 return
          </CharString>
          <CharString index="198">
            84 -71 callsubr
            -2 callsubr
            return
          </CharString>
          <CharString index="199">
            133 -13 hlineto
            -39 -6 -27 -11 -18 vhcurveto
            return
          </CharString>
          <CharString index="200">
            258 259 90 hstem
            55 773 vstem
            return
          </CharString>
          <CharString index="201">
            128 -6 callsubr
            return
          </CharString>
          <CharString index="202">
            -51 vlineto
            125 16 return
          </CharString>
          <CharString index="203">
            131 -125 131 279 130 -124 130 hintmask 11110010
            return
          </CharString>
          <CharString index="204">
            -23 vhcurveto
            -68 -184 rlineto
            -5 115 vlineto
            hintmask 10110000
            36 182 rlineto
            return
          </CharString>
          <CharString index="205">
            44 -140 -140 -6 -44 -149 -150 6 -42 140 hvcurveto
            return
          </CharString>
          <CharString index="206">
            88 hlineto
            146 321 rlineto
            57 -279 -63 194 vlineto
            endchar
          </CharString>
          <CharString index="207">
            917 rmoveto
            -64 hlineto
            -93 callsubr
            return
          </CharString>
          <CharString index="208">
            82 -45 82 82 callsubr
            -27 61 callsubr
            -27 128 return
          </CharString>
          <CharString index="209">
            1081 rmoveto
            -64 hlineto
            -93 callsubr
            return
          </CharString>
          <CharString index="210">
            79 435 rmoveto
            84 hlineto
            14 17 callsubr
            return
          </CharString>
          <CharString index="211">
            -36 callsubr
            43 callsubr
            516 return
          </CharString>
          <CharString index="212">
            -48 callgsubr
            271 130 vstem
            return
          </CharString>
          <CharString index="213">
            82 -45 82 -21 callgsubr
            return
          </CharString>
          <CharString index="214">
            101 -3 65 -29 40 vhcurveto
            return
          </CharString>
          <CharString index="215">
            144 100 callgsubr
            return
          </CharString>
          <CharString index="216">
            0 111 callgsubr
            return
          </CharString>
          <CharString index="217">
            -107 0 100 310 100 return
          </CharString>
          <CharString index="218">
            72 148 71 return
          </CharString>
          <CharString index="219">
            142 callgsubr
            hintmask 0000000000000000
            return
          </CharString>
          <CharString index="220">
            25 callgsubr
            -50 callsubr
            return
          </CharString>
          <CharString index="221">
            62 115 61 81 63 hstem
            51 71 121 81 vstem
            47 return
          </CharString>
          <CharString index="222">
            108 56 110 callgsubr
            276 -20 callsubr
            return
          </CharString>
          <CharString index="223">
            rlineto
            -111 hlineto
            return
          </CharString>
          <CharString index="224">
            -79 6 -35 132 vhcurveto
            55 vmoveto
            -68 -1 13 46 hvcurveto
            return
          </CharString>
          <CharString index="225">
            578 0 162 callsubr
            302 100 70 108 return
          </CharString>
          <CharString index="226">
            133 callgsubr
            vlineto
            return
          </CharString>
          <CharString index="227">
            62 262 63 hstem
            40 82 140 82 vstem
            192 return
          </CharString>
          <CharString index="228">
            -20 110 157 callgsubr
            return
          </CharString>
          <CharString index="229">
            205 -145 143 -207 return
          </CharString>
          <CharString index="230">
            143 55 callsubr
            205 return
          </CharString>
          <CharString index="231">
            285 142 -285 143 return
          </CharString>
          <CharString index="232">
            -40 callgsubr
            213 120 return
          </CharString>
          <CharString index="233">
            60 60 60 60 60 return
          </CharString>
          <CharString index="234">
            4 -65 rlineto
            111 return
          </CharString>
          <CharString index="235">
            69 140 70 return
          </CharString>
          <CharString index="236">
            532 157 callsubr
            return
          </CharString>
          <CharString index="237">
            -8 108 215 108 165 108 hstem
            return
          </CharString>
          <CharString index="238">
            -8 108 165 108 215 108 hstem
            return
          </CharString>
          <CharString index="239">
            282 8 54 298 297 -8 55 -282 return
          </CharString>
          <CharString index="240">
            -281 -7 -55 -297 -298 7 -54 281 return
          </CharString>
          <CharString index="241">
            -10 callsubr
            hintmask 11111110
            return
          </CharString>
          <CharString index="242">
            45 callgsubr
            endchar
          </CharString>
          <CharString index="243">
            -44 callgsubr
            hstem
            return
          </CharString>
          <CharString index="244">
            52 -22 24 -33 10 vhcurveto
            return
          </CharString>
          <CharString index="245">
            -194 128 return
          </CharString>
          <CharString index="246">
            144 hstem
            80 callsubr
            vstem
            return
          </CharString>
          <CharString index="247">
            -271 599 144 hstem
            20 314 vstem
            return
          </CharString>
          <CharString index="248">
            -614 -72 callsubr
            return
          </CharString>
          <CharString index="249">
            hstem
            80 128 76 134 74 -20 callsubr
            return
          </CharString>
          <CharString index="250">
            -137 -241 rlineto
            -60 184 vlineto
            endchar
          </CharString>
          <CharString index="251">
            110 callgsubr
            vstem
            return
          </CharString>
          <CharString index="252">
            hstem
            222 95 vstem
            222 return
          </CharString>
          <CharString index="253">
            78 5 45 85 hvcurveto
            -64 hlineto
            return
          </CharString>
          <CharString index="254">
            75 hmoveto
            120 209 hlineto
            return
          </CharString>
          <CharString index="255">
            120 -6 callsubr
            return
          </CharString>
          <CharString index="256">
            -196 72 116 return
          </CharString>
          <CharString index="257">
            hstem
            70 400 vstem
            return
          </CharString>
          <CharString index="258">
            -31 -8 107 -99 99 return
          </CharString>
          <CharString index="259">
            55 118 56 return
          </CharString>
          <CharString index="260">
            193 108 return
          </CharString>
          <CharString index="261">
            108 2 2 56 57 1 -2 -108 return
          </CharString>
          <CharString index="262">
            59 21 -30 callsubr
            584 56 return
          </CharString>
          <CharString index="263">
            151 callsubr
            364 47 0 -20 return
          </CharString>
          <CharString index="264">
            603 -74 callsubr
            return
          </CharString>
          <CharString index="265">
            -8 108 195 106 188 107 hstemhm
            return
          </CharString>
          <CharString index="266">
            781 -74 callsubr
            return
          </CharString>
          <CharString index="267">
            58 12 6 60 vhcurveto
            133 hlineto
            endchar
          </CharString>
          <CharString index="268">
            hstem
            -14 callsubr
            return
          </CharString>
          <CharString index="269">
            100 -100 108 return
          </CharString>
        <CharString name=".notdef">
          -125 0 50 49 70 383 50 48 50 hstemhm
          0 50 49 53 73 60 -56 53 57 54 57 50 hintmask 1111110111000000
          0 vmoveto
          500 700 -500 hlineto
          450 -50 rmoveto
          -600 -400 600 vlineto
          179 -435 rmoveto
          53 53 hlineto
          33 21 18 23 19 vhcurveto
          30 26 37 36 67 vvcurveto
          12 -3 123 -140 -140 -11 -124 -23 -17 4 -14 0 vhcurveto
          49 28 hlineto
          23 8 77 90 77 12 -59 -28 -51 -28 -24 -28 -23 vhcurveto
          -28 -23 -26 -23 -43 vvcurveto
          hintmask 1111111011000000
          -4 -179 rmoveto
          60 70 -60 hlineto
          endchar
        </CharString>
        <CharString name="A">
          -79 callsubr
          150 callgsubr
          534 hmoveto
          -104 callgsubr
          endchar
        </CharString>
        <CharString name="A.ss01">
          -82 callsubr
          -41 callgsubr
          492 hmoveto
          -106 callgsubr
          endchar
        </CharString>
        <CharString name="AE">
          336 0 108 52 108 25 -26 callsubr
          hstemhm
          -13 918 hintmask 10111000
          502 hmoveto
          18 callgsubr
          hintmask 11111000
          51 callgsubr
        </CharString>
        <CharString name="AEacute">
          336 0 108 52 108 25 -26 callsubr
          57 143 hstemhm
          -13 918 hintmask 10111100
          433 745 -101 callgsubr
          69 -750 rmoveto
          18 callgsubr
          hintmask 11111100
          51 callgsubr
        </CharString>
        <CharString name="Aacute">
          -79 callsubr
          62 143 150 callgsubr
          267 750 -101 callgsubr
          267 -755 -99 callgsubr
        </CharString>
        <CharString name="Aacute.ss01">
          -82 callsubr
          54 143 -41 callgsubr
          300 750 -101 callgsubr
          192 -755 rmoveto
          -106 callgsubr
          endchar
        </CharString>
        <CharString name="Abreve">
          -79 callsubr
          53 71 hstem
          196 -15 callgsubr
          vstem
          -31 callgsubr
          endchar
        </CharString>
        <CharString name="Abreve.ss01">
          -82 callsubr
          45 71 128 callgsubr
          -15 callgsubr
          -4 134 callgsubr
          496 32 callsubr
          -4 -888 rmoveto
          -106 callgsubr
          endchar
        </CharString>
        <CharString name="Acircumflex">
          -79 callsubr
          62 144 150 callgsubr
          185 750 8 callgsubr
          -757 -99 callgsubr
        </CharString>
        <CharString name="Acircumflex.ss01">
          -82 callsubr
          54 144 -41 callgsubr
          195 -45 callgsubr
          297 -757 rmoveto
          -106 callgsubr
          endchar
        </CharString>
        <CharString name="Adieresis">
          -79 callsubr
          90 97 hstem
          191 105 91 105 vstem
          191 778 -85 callsubr
          147 -875 -99 callgsubr
        </CharString>
        <CharString name="Adieresis.ss01">
          -82 callsubr
          82 97 128 callgsubr
          105 91 105 -14 134 callgsubr
          205 778 -85 callsubr
          hintmask 11111001
          91 -875 rmoveto
          -106 callgsubr
          endchar
        </CharString>
        <CharString name="Agrave">
          -79 callsubr
          62 143 150 callgsubr
          326 750 -91 callsubr
          339 -80 callsubr
        </CharString>
        <CharString name="Agrave.ss01">
          -82 callsubr
          54 143 -41 callgsubr
          320 750 -91 callsubr
          303 -888 rmoveto
          -106 callgsubr
          endchar
        </CharString>
        <CharString name="Amacron">
          -79 callsubr
          93 106 hstem
          212 259 vstem
          212 781 -49 callsubr
          322 -887 -99 callgsubr
        </CharString>
        <CharString name="Amacron.ss01">
          -82 callsubr
          85 106 -21 callgsubr
          13 259 12 134 callsubr
          221 781 -49 callsubr
          hintmask 11111010
          271 -887 rmoveto
          -106 callgsubr
          endchar
        </CharString>
        <CharString name="Aogonek">
          59 -196 72 145 -76 callgsubr
          hstem
          475 166 vstem
          577 -88 rmoveto
          30 32 38 26 20 vhcurveto
          31 hlineto
          -239 688 rlineto
          -170 hlineto
          -239 -688 132 callgsubr
          -159 rlineto
          -35 -35 -24 -42 -39 73 callsubr
          hvcurveto
          -341 356 rmoveto
          101 300 rlineto
          5 hlineto
          101 -300 rlineto
          endchar
        </CharString>
        <CharString name="Aogonek.ss01">
          76 -196 72 145 -21 212 113 263 108 -41 callgsubr
          593 hmoveto
          27 382 hlineto
          255 -32 59 -238 -238 -32 -59 -255 vhcurveto
          -382 128 212 284 -211 vlineto
          -34 -34 -25 -43 -39 vvcurveto
          -44 22 -37 90 18 20 1 2 16 vhcurveto
          71 vlineto
          -2 -6 -7 0 -4 hhcurveto
          -37 -10 15 21 30 32 38 26 20 hvcurveto
          -385 325 rmoveto
          93 vlineto
          147 5 23 137 137 5 -23 -147 vhcurveto
          -93 vlineto
          endchar
        </CharString>
        <CharString name="Aring">
          155 callsubr
          hstem
          203 128 callsubr
          vstem
          427 687 -39 callgsubr
        </CharString>
        <CharString name="Aring.ss01">
          -82 callsubr
          38 152 callsubr
          -21 callgsubr
          7 128 callsubr
          -2 94 callsubr
          hintmask 1111101100000000
          353 734 -83 callgsubr
          hintmask 1111110010000000
          139 -789 rmoveto
          -106 callgsubr
          endchar
        </CharString>
        <CharString name="Aringacute">
          155 callsubr
          57 143 hstem
          203 128 callsubr
          vstem
          512 1103 -66 callgsubr
          46 -278 -39 callgsubr
        </CharString>
        <CharString name="Aringacute.ss01">
          -82 callsubr
          15 152 callsubr
          27 70 callgsubr
          3 128 callsubr
          2 94 callsubr
          hintmask 1111110110000000
          305 967 -101 callgsubr
          44 -261 rmoveto
          134 7 35 79 hvcurveto
          hintmask 1110100110000000
          78 -7 37 -134 -132 -6 -37 -78 vhcurveto
          hintmask 1111110110000000
          117 callsubr
          hintmask 1110100110000000
          46 1 13 68 71 0 -13 -46 vhcurveto
          hintmask 1111110110000000
          -46 0 -13 -71 vhcurveto
          hintmask 1110101001000000
          143 -766 rmoveto
          -106 callgsubr
          endchar
        </CharString>
        <CharString name="Atilde">
          -79 callsubr
          74 62 callgsubr
          153 69 callgsubr
          hintmask 11110110
          530 892 rmoveto
          -64 hlineto
          -93 callsubr
          hintmask 11101110
          -100 callsubr
          hintmask 11110110
          -90 callsubr
          hintmask 11101110
          4 -892 -99 callgsubr
        </CharString>
        <CharString name="Atilde.ss01">
          -82 callsubr
          65 106 callsubr
          -45 61 callsubr
          -48 94 callsubr
          hintmask 1111010100000000
          540 891 rmoveto
          -64 hlineto
          -93 callsubr
          hintmask 1110101010000000
          -100 callsubr
          hintmask 1111010100000000
          -90 callsubr
          hintmask 1110110010000000
          -48 -891 rmoveto
          -106 callgsubr
          endchar
        </CharString>
        <CharString name="B">
          52 0 107 187 108 178 108 75 callgsubr
          266 128 -121 128 hintmask 11110100
          87 hmoveto
          332 hlineto
          154 43 75 107 96 -31 52 -94 19 hvcurveto
          4 vlineto
          hintmask 11111000
          82 17 36 51 94 vvcurveto
          111 -55 62 -136 vhcurveto
          -331 hlineto
          286 -286 rmoveto
          -158 178 158 hlineto
          87 21 -18 -72 -65 -29 -23 -79 hvcurveto
          hintmask 11110100
          5 -295 rmoveto
          -163 187 163 hlineto
          84 26 -22 -72 -73 -24 -20 -86 hvcurveto
          endchar
        </CharString>
        <CharString name="C">
          88 callgsubr
          100 callgsubr
          vstem
          522 7 -89 callsubr
        </CharString>
        <CharString name="Cacute">
          -53 113 callgsubr
          vstem
          238 745 -101 callgsubr
          284 -743 -89 callsubr
        </CharString>
        <CharString name="Cacute.loclPLK">
          -53 113 callgsubr
          vstem
          238 745 -75 callgsubr
          284 -743 -89 callsubr
        </CharString>
        <CharString name="Ccaron">
          88 callgsubr
          48 108 callsubr
          vstem
          226 744 -98 callsubr
          393 -874 -89 callsubr
        </CharString>
        <CharString name="Ccedilla">
          -53 -8 108 -80 -21 589 108 82 callsubr
          hintmask 10110000
          382 100 rmoveto
          -176 -13 19 225 225 13 19 176 32 54 -4 -6 50 hvcurveto
          101 vlineto
          10 -41 -70 7 -57 hhcurveto
          -249 -36 -72 -280 hvcurveto
          hintmask 01110000
          -233 25 -89 152 97 callsubr
          25 hlineto
          55 72 6 9 45 hvcurveto
          103 vlineto
          -6 -38 -58 -4 -44 hhcurveto
          endchar
        </CharString>
        <CharString name="Ccircumflex">
          88 callgsubr
          48 108 callsubr
          vstem
          129 744 -107 callgsubr
          393 -744 -89 callsubr
        </CharString>
        <CharString name="Cdotaccent">
          88 callgsubr
          82 97 100 callgsubr
          40 105 vstem
          233 28 callsubr
          289 -868 -89 callsubr
        </CharString>
        <CharString name="D">
          60 0 108 472 108 hstem
          87 128 276 128 vstem
          87 hmoveto
          -37 callgsubr
          endchar
        </CharString>
        <CharString name="Dcaron">
          60 0 108 472 115 callsubr
          283 744 -98 callsubr
          -99 -881 rmoveto
          -37 callgsubr
          endchar
        </CharString>
        <CharString name="Dcroat">
          -33 callsubr
        </CharString>
        <CharString name="E">
          -77 callgsubr
          5 callgsubr
          87 hmoveto
          -94 callsubr
          endchar
        </CharString>
        <CharString name="Eacute">
          -77 callgsubr
          62 143 5 callgsubr
          279 750 -101 callgsubr
          -192 -755 -91 callgsubr
        </CharString>
        <CharString name="Ebreve">
          -77 callgsubr
          53 71 75 callgsubr
          -41 -15 callgsubr
          hintmask 11111010
          465 888 rmoveto
          -72 hlineto
          -48 -2 -28 -73 vhcurveto
          hintmask 11110110
          -73 0 28 48 hvcurveto
          -71 hlineto
          -86 12 -61 132 vhcurveto
          hintmask 11111010
          133 14 61 86 hvcurveto
          -378 -888 -91 callgsubr
        </CharString>
        <CharString name="Ecaron">
          -77 callgsubr
          56 144 callsubr
          260 744 -98 callsubr
          -76 -881 -91 callgsubr
        </CharString>
        <CharString name="Ecircumflex">
          -77 callgsubr
          62 144 callsubr
          159 -45 callgsubr
          -72 -757 -91 callgsubr
        </CharString>
        <CharString name="Edieresis">
          -77 callgsubr
          90 97 75 callgsubr
          -43 105 91 105 hintmask 00000000
          hintmask 11110110
          172 778 -85 callsubr
          hintmask 11111010
          -281 -875 -91 callgsubr
        </CharString>
        <CharString name="Edotaccent">
          -77 callgsubr
          90 97 -48 callgsubr
          52 105 vstem
          267 28 callsubr
          -180 -875 -91 callgsubr
        </CharString>
        <CharString name="Egrave">
          -77 callgsubr
          62 143 5 callgsubr
          298 750 -91 callsubr
          -80 -888 -91 callgsubr
        </CharString>
        <CharString name="Emacron">
          -77 callgsubr
          93 106 75 callgsubr
          -25 259 hintmask 00000000
          hintmask 11110100
          190 781 -49 callsubr
          hintmask 11111000
          -103 -887 -91 callgsubr
        </CharString>
        <CharString name="Eng">
          19 callsubr
          -688 123 466 4 hlineto
          302 -466 rlineto
          -54 vlineto
          116 callgsubr
          717 vlineto
          endchar
        </CharString>
        <CharString name="Eogonek">
          -17 -196 72 124 -66 callsubr
          hstem
          87 128 166 166 vstem
          493 140 callgsubr
          -10 -1 -9 -35 -10 17 17 34 40 38 29 18 vhcurveto
          108 -337 185 290 108 -290 179 337 108 -465 -688 362 vlineto
          -45 -40 -23 -38 -40 vvcurveto
          -41 24 -37 88 vhcurveto
          endchar
        </CharString>
        <CharString name="Eth">
          -33 callsubr
        </CharString>
        <CharString name="Euro">
          -10 -8 108 132 73 80 72 131 108 hstem
          114 130 vstem
          395 -8 rmoveto
          98 72 14 0 hvcurveto
          103 vlineto
          0 -60 -9 -78 -139 -34 12 120 -8 vhcurveto
          266 73 -268 80 268 72 -266 hlineto
          119 8 35 12 138 hhcurveto
          58 76 -9 0 hvcurveto
          100 vlineto
          0 -68 17 -98 -207 -58 -61 -178 -13 vhcurveto
          -83 -72 80 -80 -80 -73 83 hlineto
          -192 12 56 -48 210 hhcurveto
          endchar
        </CharString>
        <CharString name="F">
          -56 21 -21 276 108 196 31 callgsubr
          vstem
          87 hmoveto
          128 276 280 108 -280 196 317 108 -445 hlineto
          endchar
        </CharString>
        <CharString name="G">
          1 callsubr
          100 callgsubr
          276 123 vstem
          469 282 -95 callgsubr
          endchar
        </CharString>
        <CharString name="G.ss01">
          1 callgsubr
          106 callgsubr
          366 -8 -96 callsubr
          endchar
        </CharString>
        <CharString name="G_tilde.loclGUA">
          1 callsubr
          63 82 -45 82 82 callsubr
          -47 61 callsubr
          -54 123 -6 callsubr
          hintmask 1111010100000000
          523 -7 callsubr
          hintmask 1110101010000000
          -100 callsubr
          hintmask 1111010100000000
          -90 callsubr
          hintmask 1110010010000000
          -54 -607 -95 callgsubr
          endchar
        </CharString>
        <CharString name="Gbreve">
          1 callsubr
          45 71 82 callsubr
          -4 -15 callgsubr
          -11 123 hintmask 00000000
          hintmask 11110110
          480 32 callsubr
          -11 -606 -95 callgsubr
          endchar
        </CharString>
        <CharString name="Gbreve.ss01">
          1 callgsubr
          45 71 82 callsubr
          6 -15 callgsubr
          8 127 hintmask 00000000
          hintmask 11110111
          490 32 callsubr
          -124 -896 -96 callsubr
          endchar
        </CharString>
        <CharString name="Gcaron">
          1 callsubr
          48 108 callsubr
          276 123 vstem
          275 744 -98 callsubr
          291 -599 -95 callgsubr
          endchar
        </CharString>
        <CharString name="Gcaron.ss01">
          1 callgsubr
          48 144 106 callgsubr
          285 744 -98 callsubr
          178 -889 -96 callsubr
          endchar
        </CharString>
        <CharString name="Gcircumflex">
          1 callsubr
          48 108 callsubr
          276 123 vstem
          178 744 -107 callgsubr
          291 -469 -95 callgsubr
          endchar
        </CharString>
        <CharString name="Gcircumflex.ss01">
          1 callgsubr
          48 144 106 callgsubr
          188 744 -107 callgsubr
          178 -759 -96 callsubr
          endchar
        </CharString>
        <CharString name="Gcommaaccent">
          45 -16 callgsubr
          54 105 185 105 201 108 100 callgsubr
          84 128 64 123 vstem
          469 282 -95 callgsubr
          -82 -520 -87 callgsubr
        </CharString>
        <CharString name="Gcommaaccent.ss01">
          64 -16 callgsubr
          54 107 191 105 153 callsubr
          100 callgsubr
          94 128 83 127 vstem
          366 -8 -96 callsubr
          -92 -230 -87 callgsubr
        </CharString>
        <CharString name="Gdotaccent">
          1 callsubr
          82 97 100 callgsubr
          89 105 82 123 vstem
          282 28 callsubr
          187 -593 -95 callgsubr
          endchar
        </CharString>
        <CharString name="Gdotaccent.ss01">
          1 callgsubr
          82 97 100 callgsubr
          99 105 101 127 vstem
          292 28 callsubr
          74 -883 -96 callsubr
          endchar
        </CharString>
        <CharString name="Gtilde.loclGUA.ss01">
          1 callgsubr
          63 82 -45 82 82 callsubr
          -37 61 callsubr
          -35 127 -6 callsubr
          hintmask 1111010100000000
          533 -7 callsubr
          hintmask 1110101010000000
          -100 callsubr
          hintmask 1111010100000000
          -90 callsubr
          hintmask 1110010010000000
          -167 -897 -96 callsubr
          endchar
        </CharString>
        <CharString name="H">
          101 21 -21 290 112 286 -20 -48 callgsubr
          296 -20 callsubr
          511 hmoveto
          10 callgsubr
          endchar
        </CharString>
        <CharString name="Hbar">
          101 21 -21 250 112 110 98 -98 216 75 callgsubr
          296 128 hintmask 11011100
          511 688 rmoveto
          hintmask 11101100
          -118 -296 vlineto
          hintmask 11011100
          118 -128 -688 128 250 296 -250 66 callgsubr
          vlineto
          -424 -326 rmoveto
          110 296 -110 vlineto
          endchar
        </CharString>
        <CharString name="Hcircumflex">
          101 21 -21 290 112 286 -20 76 110 callgsubr
          296 -20 callsubr
          206 744 -107 callgsubr
          305 -751 rmoveto
          10 callgsubr
          endchar
        </CharString>
        <CharString name="I">
          -4 callgsubr
          5 callgsubr
          87 hmoveto
          -26 callgsubr
          hlineto
          endchar
        </CharString>
        <CharString name="IJ">
          58 0 102 -81 -36 callsubr
          75 callgsubr
          258 128 hintmask 01111000
          87 hmoveto
          -26 callgsubr
          hlineto
          hintmask 10111000
          243 -586 -69 callsubr
        </CharString>
        <CharString name="Iacute">
          -4 callgsubr
          82 143 5 callgsubr
          91 750 -101 callgsubr
          -4 -755 -36 callgsubr
        </CharString>
        <CharString name="Iacute_J.loclNLD">
          58 0 102 -81 -36 callsubr
          77 143 75 callgsubr
          258 128 hintmask 01111100
          103 745 -101 callgsubr
          386 -5 -101 callgsubr
          -402 -750 rmoveto
          -26 callgsubr
          hlineto
          hintmask 10111100
          243 -586 -69 callsubr
        </CharString>
        <CharString name="Ibreve">
          -4 callgsubr
          73 71 hstemhm
          5 71 11 128 9 72 148 callgsubr
          296 -84 callsubr
          hintmask 11101000
          -209 -888 -36 callgsubr
        </CharString>
        <CharString name="Icircumflex">
          -4 callgsubr
          82 144 callsubr
          -6 -45 callgsubr
          93 -757 -36 callgsubr
        </CharString>
        <CharString name="Idieresis">
          -4 callgsubr
          110 97 hstemhm
          1 105 -19 128 -18 105 hintmask 00000000
          hintmask 11110100
          1 778 -85 callsubr
          hintmask 11101000
          -110 -875 -36 callgsubr
        </CharString>
        <CharString name="Idotaccent">
          -4 callgsubr
          110 97 75 callgsubr
          -117 105 hintmask 00000000
          hintmask 11101000
          98 28 callsubr
          hintmask 11110000
          -11 -875 -36 callgsubr
        </CharString>
        <CharString name="Igrave">
          -4 callgsubr
          82 143 5 callgsubr
          130 750 -91 callsubr
          88 -888 -36 callgsubr
        </CharString>
        <CharString name="Imacron">
          -4 callgsubr
          113 106 5 callgsubr
          21 781 -49 callsubr
          66 -887 -36 callgsubr
        </CharString>
        <CharString name="Iogonek">
          -323 -196 72 145 -36 callsubr
          5 callgsubr
          162 140 callgsubr
          -11 -1 -6 -37 -10 15 21 31 37 40 26 17 vhcurveto
          688 -128 -688 25 vlineto
          -36 -34 -26 -42 -39 vvcurveto
          -44 22 -37 90 vhcurveto
          endchar
        </CharString>
        <CharString name="Itilde">
          -4 callgsubr
          91 62 callgsubr
          -38 65 60 128 60 64 hintmask 00000000
          hintmask 11101110
          339 -7 callsubr
          hintmask 11011110
          -100 callsubr
          hintmask 11101110
          -90 callsubr
          hintmask 11011110
          -252 -889 -36 callgsubr
        </CharString>
        <CharString name="J">
          -244 0 102 586 -20 hstemhm
          171 128 161 callgsubr
          28 102 -69 callsubr
        </CharString>
        <CharString name="Jcircumflex">
          -244 0 102 -81 -36 callsubr
          76 144 hstemhm
          171 128 hintmask 01111000
          78 744 -107 callgsubr
          hintmask 10111000
          -50 -649 -69 callsubr
        </CharString>
        <CharString name="K">
          50 21 -21 296 108 284 -20 hstem
          87 12 callsubr
          endchar
        </CharString>
        <CharString name="Kcommaaccent">
          50 -16 callgsubr
          83 -21 296 108 284 -20 -48 callgsubr
          65 12 callsubr
          -30 -534 -87 callgsubr
        </CharString>
        <CharString name="L">
          -86 0 112 576 -20 5 callgsubr
          87 hmoveto
          3 callsubr
          endchar
        </CharString>
        <CharString name="Lacute">
          -86 0 112 576 -20 77 143 5 callgsubr
          103 745 -101 callgsubr
          -16 -750 rmoveto
          3 callsubr
          endchar
        </CharString>
        <CharString name="Lcaron">
          -86 0 112 323 253 0 -20 75 callgsubr
          134 112 hintmask 10111000
          87 hmoveto
          3 callsubr
          hintmask 11011000
          246 -253 rmoveto
          84 hlineto
          44 17 callsubr
          endchar
        </CharString>
        <CharString name="Lcommaaccent">
          -86 -16 callgsubr
          62 112 576 -20 75 callgsubr
          17 128 hintmask 11111000
          87 hmoveto
          3 callsubr
          hintmask 11111100
          132 -926 -87 callgsubr
        </CharString>
        <CharString name="Ldot">
          -86 0 112 198 125 253 -20 -48 callgsubr
          139 134 vstem
          87 hmoveto
          3 callsubr
          267 -378 -92 callgsubr
        </CharString>
        <CharString name="Lslash">
          -86 0 112 576 -20 5 callgsubr
          215 112 rmoveto
          208 vlineto
          170 64 rlineto
          95 vlineto
          -170 -64 rlineto
          273 -128 -321 vlineto
          -60 -22 rlineto
          -95 vlineto
          60 22 rlineto
          -272 425 112 vlineto
          endchar
        </CharString>
        <CharString name="M">
          273 21 -21 493 195 0 -20 hstemhm
          87 120 480 124 hintmask 10111000
          687 hmoveto
          124 688 -175 hlineto
          -184 -474 rlineto
          -5 hlineto
          -184 474 rlineto
          -176 -688 120 hlineto
          hintmask 11011000
          493 4 vlineto
          191 -493 rlineto
          89 hlineto
          192 493 rlineto
          4 hlineto
          endchar
        </CharString>
        <CharString name="N">
          101 21 -21 688 -20 hstem
          87 123 306 123 vstem
          34 callsubr
          endchar
        </CharString>
        <CharString name="Nacute">
          109 callgsubr
          77 143 43 callsubr
          315 745 -101 callgsubr
          201 -750 rmoveto
          -78 callsubr
          endchar
        </CharString>
        <CharString name="Nacute.loclPLK">
          109 callgsubr
          77 143 43 callsubr
          315 745 -75 callgsubr
          201 -750 rmoveto
          -78 callsubr
          endchar
        </CharString>
        <CharString name="Ncaron">
          109 callgsubr
          76 144 43 callsubr
          303 744 -98 callsubr
          310 -881 rmoveto
          -78 callsubr
          endchar
        </CharString>
        <CharString name="Ncommaaccent">
          101 -16 callgsubr
          83 -36 callsubr
          hstem
          87 123 95 128 83 123 vstem
          34 callsubr
          78 -704 -87 callgsubr
        </CharString>
        <CharString name="Ntilde">
          109 callgsubr
          95 62 callgsubr
          87 123 -37 61 callsubr
          -34 123 hintmask 00000000
          hintmask 11101010
          550 893 rmoveto
          -64 hlineto
          -93 callsubr
          hintmask 11010101
          -100 callsubr
          hintmask 11101010
          -90 callsubr
          hintmask 11011001
          -34 -893 rmoveto
          -78 callsubr
          endchar
        </CharString>
        <CharString name="O">
          91 callsubr
          354 -8 -105 callsubr
          endchar
        </CharString>
        <CharString name="OE">
          396 0 -66 callsubr
          -2 callsubr
          354 hmoveto
          611 108 -280 hlineto
          -20 -27 -3 -5 -25 hvcurveto
          24 46 6 62 1 85 rrcurveto
          274 108 -274 hlineto
          -1 80 -8 62 -22 45 rrcurveto
          -5 25 27 -3 20 hhcurveto
          280 108 -611 hlineto
          -277 -12 -70 -274 -274 12 -70 277 62 callsubr
          -155 -6 5 231 231 6 5 155 155 7 -5 -231 -231 -7 -5 -155 hvcurveto
          endchar
        </CharString>
        <CharString name="Oacute">
          84 -71 callsubr
          54 143 -2 callsubr
          296 750 -101 callgsubr
          58 -763 -105 callsubr
          endchar
        </CharString>
        <CharString name="Oacute.loclPLK">
          84 113 callgsubr
          323 128 vstem
          307 745 -75 callgsubr
          47 -758 -105 callsubr
          endchar
        </CharString>
        <CharString name="Obreve">
          84 -71 callsubr
          45 71 82 callsubr
          16 -15 callgsubr
          16 134 callsubr
          500 -84 callsubr
          hintmask 11110010
          -146 -896 -105 callsubr
          endchar
        </CharString>
        <CharString name="Ocircumflex">
          84 -71 callsubr
          54 144 -2 callsubr
          197 750 52 callsubr
          -765 -105 callsubr
          endchar
        </CharString>
        <CharString name="Odieresis">
          84 -71 callsubr
          82 97 82 callsubr
          12 105 91 105 10 134 callsubr
          205 778 -85 callsubr
          hintmask 11110010
          -47 -883 -105 callsubr
          endchar
        </CharString>
        <CharString name="Ograve">
          84 -71 callsubr
          54 143 -2 callsubr
          318 750 -91 callsubr
          167 -896 -105 callsubr
          endchar
        </CharString>
        <CharString name="Ohorn">
          15 callgsubr
          60 callsubr
          -37 81 hintmask 00000000
          hintmask 11001010
          607 159 callsubr
          -65 hlineto
          hintmask 10101100
          -63 callgsubr
          hintmask 10011100
          61 callgsubr
          hintmask 10011010
          89 callgsubr
          hintmask 11001010
          22 vlineto
          hintmask 10101100
          -74 callgsubr
          endchar
        </CharString>
        <CharString name="Ohungarumlaut">
          84 -71 callsubr
          57 127 -2 callsubr
          217 753 -80 callgsubr
          -54 -766 -105 callsubr
          endchar
        </CharString>
        <CharString name="Omacron">
          84 -71 callsubr
          85 106 100 callgsubr
          32 259 32 -20 callsubr
          225 781 -49 callsubr
          129 -895 -105 callsubr
          endchar
        </CharString>
        <CharString name="Oslash">
          91 callsubr
          586 645 -61 callgsubr
        </CharString>
        <CharString name="Oslashacute">
          84 113 callgsubr
          323 128 vstem
          526 883 -66 callgsubr
          191 -100 -61 callgsubr
        </CharString>
        <CharString name="Otilde">
          84 -71 callsubr
          66 101 callsubr
          hintmask 00000000
          hintmask 11101010
          543 892 rmoveto
          -64 hlineto
          -93 callsubr
          hintmask 11010101
          -100 callsubr
          hintmask 11101010
          -90 callsubr
          hintmask 11001001
          -189 -900 -105 callsubr
          endchar
        </CharString>
        <CharString name="P">
          24 21 -21 236 108 236 31 callgsubr
          263 -20 callsubr
          87 hmoveto
          128 236 99 callgsubr
          -313 hlineto
          128 -344 78 callgsubr
        </CharString>
        <CharString name="Q">
          91 callsubr
          566 29 rmoveto
          73 45 5 94 176 vvcurveto
          -45 callsubr
          -277 -12 -73 callgsubr
          12 -72 277 35 31 1 3 27 vhcurveto
          76 -111 rlineto
          145 2 hlineto
          -314 213 rmoveto
          -155 -6 5 239 239 6 5 155 155 7 -5 -239 -126 -2 -61 -19 -30 hvcurveto
          -65 91 rlineto
          -135 hlineto
          81 -118 rlineto
          endchar
        </CharString>
        <CharString name="R">
          21 callsubr
          hstem
          87 128 272 -20 callsubr
          627 hmoveto
          -85 callgsubr
        </CharString>
        <CharString name="R.ss01">
          22 callgsubr
          hstem
          87 128 271 -33 callgsubr
          endchar
        </CharString>
        <CharString name="Racute">
          21 callsubr
          57 143 -48 callgsubr
          272 -20 callsubr
          510 883 -66 callgsubr
          248 -745 rmoveto
          -85 callgsubr
        </CharString>
        <CharString name="Racute.ss01">
          22 callgsubr
          57 143 105 callsubr
          512 883 -66 callgsubr
          228 -574 -95 callsubr
          endchar
        </CharString>
        <CharString name="Rcaron">
          21 callsubr
          56 110 callgsubr
          272 -20 callsubr
          398 744 18 callsubr
          348 -744 rmoveto
          -85 callgsubr
        </CharString>
        <CharString name="Rcaron.ss01">
          22 callgsubr
          56 144 105 callsubr
          400 744 18 callsubr
          328 -573 -95 callsubr
          endchar
        </CharString>
        <CharString name="Rcommaaccent">
          53 -16 callgsubr
          83 68 callgsubr
          hstem
          87 128 66 128 78 -18 callsubr
          -77 -545 53 callsubr
        </CharString>
        <CharString name="Rcommaaccent.ss01">
          57 -16 callgsubr
          83 68 callsubr
          hstem
          87 128 68 128 75 -33 callgsubr
          -85 -547 53 callsubr
        </CharString>
        <CharString name="S">
          -3 -8 155 callgsubr
          251 -58 callgsubr
          endchar
        </CharString>
        <CharString name="Sacute">
          -3 42 callgsubr
          80 callsubr
          vstem
          263 745 -101 callgsubr
          62 -758 -98 callgsubr
          endchar
        </CharString>
        <CharString name="Sacute.loclPLK">
          -3 42 callgsubr
          80 callsubr
          vstem
          263 745 -75 callgsubr
          62 -758 -98 callgsubr
          endchar
        </CharString>
        <CharString name="Scaron">
          -3 -71 callsubr
          54 139 callsubr
          258 750 -98 callsubr
          164 -895 -98 callgsubr
          endchar
        </CharString>
        <CharString name="Scedilla">
          -3 -190 290 -107 107 488 108 hstemhm
          80 callsubr
          hintmask 01111000
          565 202 rmoveto
          55 -7 40 -13 29 vhcurveto
          -25 53 -45 15 -56 6 -162 19 rcurveline
          -64 7 -8 9 65 vvcurveto
          34 1 23 25 14 vhcurveto
          12 21 37 5 67 hhcurveto
          64 82 -5 -8 49 hvcurveto
          102 vlineto
          11 -51 -92 8 -78 hhcurveto
          -147 -107 -22 -180 -113 31 -66 128 -15 hvcurveto
          160 -19 rlineto
          54 -6 7 -14 -65 vvcurveto
          -36 -1 -25 -21 -15 vhcurveto
          -14 -20 -37 -6 -70 hhcurveto
          -50 -88 5 7 -73 hvcurveto
          -105 vlineto
          53 -7 71 -5 65 -2 rrcurveto
          hintmask 10111000
          -66 -178 rlineto
          -5 115 vlineto
          36 182 rlineto
          hintmask 01111000
          127 3 88 28 179 vvcurveto
          endchar
        </CharString>
        <CharString name="Scircumflex">
          -3 -71 callsubr
          48 139 callsubr
          154 744 -107 callgsubr
          171 -759 -98 callgsubr
          endchar
        </CharString>
        <CharString name="Scommaaccent">
          -3 -16 callgsubr
          54 155 callgsubr
          68 128 55 -58 callgsubr
          -85 -230 -87 callgsubr
        </CharString>
        <CharString name="T">
          -45 21 -21 576 87 callgsubr
          226 hmoveto
          14 callgsubr
          endchar
        </CharString>
        <CharString name="Tbar">
          -45 21 -21 275 98 203 87 callgsubr
          558 576 rmoveto
          112 -536 -112 204 -203 -184 -98 184 -275 128 275 184 98 -184 203 vlineto
          endchar
        </CharString>
        <CharString name="Tcaron">
          -45 21 -21 576 112 56 144 hstem
          226 -20 callsubr
          230 744 -98 callsubr
          93 -881 rmoveto
          14 callgsubr
          endchar
        </CharString>
        <CharString name="Thorn">
          24 21 -21 125 108 236 108 111 -20 -48 callgsubr
          263 -20 callsubr
          87 hmoveto
          128 125 99 callgsubr
          -185 111 -128 hlineto
          128 -455 78 callgsubr
        </CharString>
        <CharString name="U">
          -42 callgsubr
          -41 callgsubr
          492 688 rmoveto
          -418 vlineto
          -101 callsubr
          382 vlineto
          endchar
        </CharString>
        <CharString name="Uacute">
          -42 callgsubr
          82 143 -41 callgsubr
          308 750 -101 callgsubr
          184 -67 rmoveto
          -418 vlineto
          -101 callsubr
          382 vlineto
          endchar
        </CharString>
        <CharString name="Ubreve">
          -42 callgsubr
          73 71 128 callgsubr
          -15 callgsubr
          -4 -10 callsubr
          hintmask 11101100
          496 -84 callsubr
          hintmask 11110010
          -4 -200 rmoveto
          -418 vlineto
          -101 callsubr
          382 vlineto
          endchar
        </CharString>
        <CharString name="Ucircumflex">
          -42 callgsubr
          82 144 -41 callgsubr
          197 -45 callgsubr
          295 -69 rmoveto
          -418 vlineto
          -101 callsubr
          382 vlineto
          endchar
        </CharString>
        <CharString name="Udieresis">
          -42 callgsubr
          110 97 -21 callgsubr
          -8 105 91 105 -9 -10 callsubr
          hintmask 11101100
          200 778 -85 callsubr
          hintmask 11110010
          96 -187 rmoveto
          -418 vlineto
          -101 callsubr
          382 vlineto
          endchar
        </CharString>
        <CharString name="Ugrave">
          -42 callgsubr
          82 143 -41 callgsubr
          324 750 -91 callsubr
          299 -200 rmoveto
          -418 vlineto
          -101 callsubr
          382 vlineto
          endchar
        </CharString>
        <CharString name="Uhorn">
          43 callgsubr
          -21 callgsubr
          284 128 19 81 hintmask 00000000
          hintmask 10111100
          129 callgsubr
          hintmask 10111000
          -86 -418 hlineto
          -101 callsubr
          hintmask 11011000
          334 vlineto
          hintmask 10111100
          36 callsubr
          endchar
        </CharString>
        <CharString name="Uhungarumlaut">
          -42 callgsubr
          85 127 -41 callgsubr
          213 753 -80 callgsubr
          88 -70 rmoveto
          -418 vlineto
          -101 callsubr
          382 vlineto
          endchar
        </CharString>
        <CharString name="Umacron">
          -42 callgsubr
          113 106 -21 callgsubr
          13 259 12 128 148 callgsubr
          221 781 -49 callsubr
          hintmask 11110100
          271 -199 rmoveto
          -418 vlineto
          -101 callsubr
          382 vlineto
          endchar
        </CharString>
        <CharString name="Uogonek">
          76 149 callsubr
          -9 callsubr
          -21 callgsubr
          145 166 -27 128 hintmask 11110100
          492 688 rmoveto
          -418 vlineto
          -147 -4 81 callsubr
          -6 153 callgsubr
          418 -128 -382 vlineto
          -256 33 -58 238 vhcurveto
          hintmask 11111000
          19 18 0 1 16 hvcurveto
          -31 -34 -20 -38 -36 73 callsubr
          57 38 30 42 22 hvcurveto
          hintmask 11110100
          72 38 13 83 164 vvcurveto
          382 vlineto
          endchar
        </CharString>
        <CharString name="Uring">
          -42 callgsubr
          43 152 callsubr
          -21 callgsubr
          3 128 callsubr
          2 134 callgsubr
          349 711 -83 callgsubr
          hintmask 11011001
          143 -78 rmoveto
          -418 vlineto
          -101 callsubr
          382 vlineto
          endchar
        </CharString>
        <CharString name="Utilde">
          -42 callgsubr
          91 41 callgsubr
          hintmask 00000000
          hintmask 11101010
          539 -7 callsubr
          hintmask 11011001
          10 -37 -41 11 -40 hhcurveto
          -79 -5 -45 -85 hvcurveto
          hintmask 11010101
          67 callsubr
          hintmask 11101010
          -90 callsubr
          hintmask 11011001
          -47 -201 rmoveto
          -418 vlineto
          -101 callsubr
          382 vlineto
          endchar
        </CharString>
        <CharString name="V">
          38 0 137 551 -20 hstem
          20 622 vstem
          246 hmoveto
          170 hlineto
          226 688 rlineto
          -129 hlineto
          -177 -551 rlineto
          -5 hlineto
          -179 551 rlineto
          -132 hlineto
          endchar
        </CharString>
        <CharString name="W">
          21 callgsubr
          hstemhm
          26 938 hintmask 10110000
          632 hmoveto
          -81 callsubr
          hintmask 11010000
          55 callgsubr
        </CharString>
        <CharString name="Wacute">
          21 callgsubr
          77 143 hstemhm
          26 938 hintmask 10111000
          447 745 -101 callgsubr
          185 -750 rmoveto
          -81 callsubr
          hintmask 11011000
          55 callgsubr
        </CharString>
        <CharString name="Wcircumflex">
          21 callgsubr
          76 144 hstemhm
          26 938 hintmask 10111000
          338 744 -107 callgsubr
          294 -751 rmoveto
          -81 callsubr
          hintmask 11011000
          55 callgsubr
        </CharString>
        <CharString name="Wdieresis">
          21 callgsubr
          110 97 hstemhm
          344 105 91 105 hintmask 10111100
          344 778 -85 callsubr
          92 -875 rmoveto
          -81 callsubr
          hintmask 11011100
          55 callgsubr
        </CharString>
        <CharString name="Wgrave">
          21 callgsubr
          77 143 hstemhm
          26 938 hintmask 10111000
          455 745 -91 callsubr
          308 -883 rmoveto
          -81 callsubr
          hintmask 11011000
          55 callgsubr
        </CharString>
        <CharString name="X">
          50 136 callsubr
          20 635 vstem
          506 hmoveto
          149 hlineto
          -239 348 236 340 rlineto
          -145 hlineto
          -163 -237 rlineto
          -8 hlineto
          -163 237 rlineto
          -149 hlineto
          236 -343 -240 -345 rlineto
          144 hlineto
          167 245 rlineto
          8 hlineto
          endchar
        </CharString>
        <CharString name="Y">
          -7 136 callsubr
          244 -20 callsubr
          244 hmoveto
          -88 callgsubr
          endchar
        </CharString>
        <CharString name="Y.loclGUA">
          -12 callgsubr
          54 callsubr
          hintmask 01111100
          452 688 rmoveto
          -218 vlineto
          hintmask 10111100
          -93 callgsubr
          endchar
        </CharString>
        <CharString name="Yacute">
          -7 -44 callgsubr
          82 143 hstem
          244 -20 callsubr
          270 750 -101 callgsubr
          -26 -755 rmoveto
          -88 callgsubr
          endchar
        </CharString>
        <CharString name="Yacute.loclGUA">
          -12 callgsubr
          77 143 54 callsubr
          hintmask 01111110
          480 883 -66 callgsubr
          103 -57 rmoveto
          -218 vlineto
          hintmask 10111110
          -93 callgsubr
          endchar
        </CharString>
        <CharString name="Ycircumflex">
          -7 -44 callgsubr
          76 144 hstem
          244 -20 callsubr
          152 744 -107 callgsubr
          92 -751 rmoveto
          -88 callgsubr
          endchar
        </CharString>
        <CharString name="Ycircumflex.loclGUA">
          -12 callgsubr
          76 144 54 callsubr
          hintmask 01111110
          308 832 -63 callsubr
          220 -56 rmoveto
          -218 vlineto
          hintmask 10111110
          -93 callgsubr
          endchar
        </CharString>
        <CharString name="Ydieresis">
          -7 -44 callgsubr
          110 97 hstemhm
          164 105 -25 128 -12 105 hintmask 00000000
          hintmask 11110100
          164 778 -85 callsubr
          hintmask 11101000
          -116 -875 rmoveto
          -88 callgsubr
          endchar
        </CharString>
        <CharString name="Ydieresis.loclGUA">
          -12 callgsubr
          110 97 hstemhm
          40 128 -10 105 -19 128 -18 105 -7 94 callsubr
          hintmask 0111010100000000
          263 875 58 callgsubr
          hintmask 1011101010000000
          -7 -90 rmoveto
          -218 vlineto
          -93 callgsubr
          endchar
        </CharString>
        <CharString name="Ygrave">
          -7 -44 callgsubr
          77 143 hstem
          244 -20 callsubr
          269 745 -91 callsubr
          106 -883 rmoveto
          -88 callgsubr
          endchar
        </CharString>
        <CharString name="Ygrave.loclGUA">
          -12 callgsubr
          77 143 54 callsubr
          hintmask 01111110
          357 745 -52 callgsubr
          183 -57 rmoveto
          -218 vlineto
          hintmask 10111110
          -93 callgsubr
          endchar
        </CharString>
        <CharString name="Z">
          79 callsubr
          hstem
          48 516 vstem
          48 hmoveto
          -77 callsubr
          endchar
        </CharString>
        <CharString name="Zacute">
          79 callsubr
          57 143 hstem
          48 516 vstem
          257 745 -101 callgsubr
          -209 -750 rmoveto
          -77 callsubr
          endchar
        </CharString>
        <CharString name="Zacute.loclPLK">
          79 callsubr
          57 143 hstem
          48 516 vstem
          257 745 -75 callgsubr
          -209 -750 rmoveto
          -77 callsubr
          endchar
        </CharString>
        <CharString name="Zcaron">
          79 callsubr
          62 144 hstem
          48 516 vstem
          254 750 -98 callsubr
          -109 -887 rmoveto
          -77 callsubr
          endchar
        </CharString>
        <CharString name="Zdotaccent">
          79 callsubr
          90 97 hstem
          252 105 vstem
          252 28 callsubr
          -204 -875 rmoveto
          -77 callsubr
          endchar
        </CharString>
        <CharString name="a">
          -81 callgsubr
          38 callgsubr
          hintmask 10111100
          201 -8 -72 callsubr
          hintmask 01111100
          -107 callsubr
          hintmask 10111100
          -100 callgsubr
          endchar
        </CharString>
        <CharString name="aacute">
          -81 callgsubr
          82 143 27 callgsubr
          229 600 -101 callgsubr
          -28 -613 -72 callsubr
          hintmask 01111110
          -107 callsubr
          hintmask 10111110
          -100 callgsubr
          endchar
        </CharString>
        <CharString name="abreve">
          -81 callgsubr
          78 71 55 callsubr
          -27 -15 callgsubr
          -59 148 callsubr
          hintmask 1011101100000000
          428 -68 callgsubr
          hintmask 1011110010000000
          -227 -751 -53 callsubr
        </CharString>
        <CharString name="acircumflex">
          -81 callgsubr
          81 144 27 callgsubr
          127 599 -107 callgsubr
          74 141 callsubr
          hintmask 01111110
          -107 callsubr
          hintmask 10111110
          -100 callgsubr
          endchar
        </CharString>
        <CharString name="acute">
          123 callgsubr
          219 vstem
          20 600 -101 callgsubr
          endchar
        </CharString>
        <CharString name="acute.case.loclPLK">
          -366 745 143 hstem
          20 169 vstem
          20 745 -75 callgsubr
          endchar
        </CharString>
        <CharString name="acute.loclPLK">
          123 callgsubr
          169 vstem
          20 600 -75 callgsubr
          endchar
        </CharString>
        <CharString name="acutecomb">
          600 83 callsubr
          -239 600 -101 callgsubr
          endchar
        </CharString>
        <CharString name="acutecomb.case">
          745 83 callsubr
          -239 745 -101 callgsubr
          endchar
        </CharString>
        <CharString name="adieresis">
          -81 callgsubr
          115 97 55 callsubr
          -32 105 91 105 -64 120 hintmask 1011101010000000
          132 30 callgsubr
          hintmask 1011110100000000
          196 -97 rmoveto
          105 97 -105 hlineto
          -127 -738 rmoveto
          hintmask 1011101010000000
          -76 callsubr
          hintmask 0111110010000000
          -107 callsubr
          hintmask 1011110100000000
          -111 53 -39 101 vhcurveto
          57 97 rmoveto
          -81 -13 9 56 hvcurveto
          hintmask 1011110010000000
          -4 callsubr
          vhcurveto
          92 callsubr
          hintmask 1011110100000000
          135 callgsubr
        </CharString>
        <CharString name="ae">
          130 callgsubr
          55 callsubr
          205 122 152 callgsubr
          hintmask 11011110
          815 254 13 callgsubr
          hintmask 10111110
          5 callsubr
          hintmask 11011110
          -3 callsubr
          hintmask 10111110
          160 callsubr
        </CharString>
        <CharString name="aeacute">
          130 callgsubr
          82 123 callsubr
          122 152 callgsubr
          hintmask 11011111
          603 738 -66 callgsubr
          343 -346 13 callgsubr
          hintmask 10111111
          5 callsubr
          hintmask 11011111
          -3 callsubr
          hintmask 10111111
          160 callsubr
        </CharString>
        <CharString name="agrave">
          -81 callgsubr
          82 143 27 callgsubr
          245 600 -91 callsubr
          87 -746 -72 callsubr
          hintmask 01111110
          -107 callsubr
          hintmask 10111110
          -100 callgsubr
          endchar
        </CharString>
        <CharString name="amacron">
          -81 callgsubr
          118 106 55 callsubr
          -11 259 -43 95 callgsubr
          hintmask 10111010
          153 636 -49 callsubr
          hintmask 10111101
          48 -750 -72 callsubr
          hintmask 01111101
          -107 callsubr
          hintmask 10111101
          -100 callgsubr
          endchar
        </CharString>
        <CharString name="ampersand">
          112 -8 101 204 101 196 102 hstemhm
          60 123 -117 123 287 119 hintmask 11110100
          476 398 rmoveto
          -300 vlineto
          -3 -36 -37 -2 -40 hhcurveto
          -131 -49 14 88 74 14 28 108 hvcurveto
          79 101 -79 hlineto
          hintmask 11101100
          -107 -9 39 57 77 23 23 177 55 85 -6 -8 62 hvcurveto
          95 vlineto
          12 -67 -95 9 -67 hhcurveto
          -245 -51 -84 -97 -100 39 -43 80 -19 hvcurveto
          -4 vlineto
          hintmask 11110100
          -81 -19 -44 -34 -112 vvcurveto
          -108 38 -84 265 69 96 9 12 67 vhcurveto
          284 110 101 vlineto
          endchar
        </CharString>
        <CharString name="aogonek">
          -60 149 callsubr
          -78 callgsubr
          55 callsubr
          161 102 -58 95 callgsubr
          hintmask 11011110
          472 -124 rmoveto
          -35 -10 16 18 hvcurveto
          hintmask 00111101
          34 33 39 29 17 vhcurveto
          313 vlineto
          144 -24 61 -195 -64 -68 -5 -10 -59 vhcurveto
          -94 vlineto
          4 30 77 5 43 hhcurveto
          120 20 -5 -95 hvcurveto
          -20 vlineto
          2 -54 -83 2 -26 hhcurveto
          -124 -35 -43 -117 hvcurveto
          hintmask 01011101
          -111 53 -39 101 57 75 8 63 34 vhcurveto
          7 hlineto
          hintmask 00111101
          4 -63 rlineto
          8 hlineto
          hintmask 11011110
          -35 64 callgsubr
          hintmask 01011101
          -103 332 rmoveto
          -39 -6 -27 -11 -18 vhcurveto
          -27 -17 -31 -8 -46 hhcurveto
          -81 -13 9 56 -4 callsubr
          hvcurveto
          133 hlineto
          endchar
        </CharString>
        <CharString name="approxequal">
          -128 100 82 -45 82 69 62 callgsubr
          59 61 callsubr
          hintmask 01011100
          59 277 rmoveto
          67 callsubr
          hintmask 01101100
          -90 callsubr
          -64 hlineto
          -93 callsubr
          hintmask 01011100
          10 -37 -41 11 -40 hhcurveto
          -79 -5 -45 -85 hvcurveto
          -188 vmoveto
          67 callsubr
          hintmask 10011100
          -90 callsubr
          -64 hlineto
          -93 callsubr
          hintmask 01011100
          10 -37 -41 11 -40 hhcurveto
          -79 -5 -45 -85 hvcurveto
          endchar
        </CharString>
        <CharString name="aring">
          -81 callgsubr
          62 152 callsubr
          55 callsubr
          -21 128 callsubr
          -53 120 hintmask 1011110101000000
          281 580 rmoveto
          hintmask 1011110110000000
          134 7 35 79 78 -7 37 -134 -132 -6 -37 -78 hvcurveto
          hintmask 1011110101000000
          -79 6 -35 132 vhcurveto
          hintmask 1011110110000000
          55 vmoveto
          -68 -1 13 46 46 1 13 68 71 0 -13 -46 -46 0 -13 -71 hvcurveto
          hintmask 1011111001000000
          -80 -643 -72 callsubr
          hintmask 0111111001000000
          -107 callsubr
          hintmask 1011111001000000
          -100 callgsubr
          endchar
        </CharString>
        <CharString name="aringacute">
          -81 callgsubr
          78 152 callsubr
          30 143 55 callsubr
          -21 128 callsubr
          -53 148 callsubr
          hintmask 1011111011000000
          232 855 -101 callgsubr
          49 -264 rmoveto
          134 7 35 79 hvcurveto
          hintmask 1011110011000000
          78 -7 37 -134 -132 -6 -37 -78 vhcurveto
          hintmask 1011111011000000
          117 callsubr
          hintmask 1011110011000000
          46 1 13 68 71 0 -13 -46 vhcurveto
          hintmask 1011111011000000
          -46 0 -13 -71 vhcurveto
          hintmask 1011110100100000
          -80 -659 -72 callsubr
          hintmask 0111110100100000
          -107 callsubr
          hintmask 1011110100100000
          -100 callgsubr
          endchar
        </CharString>
        <CharString name="arrowboth">
          93 callsubr
          340 162 rmoveto
          -33 97 rlineto
          269 hlineto
          -33 -97 124 callsubr
          33 -98 rlineto
          -269 hlineto
          33 98 -285 -143 rlineto
          endchar
        </CharString>
        <CharString name="arrowdown">
          -230 688 -20 hstem
          153 90 vstem
          198 -85 rmoveto
          142 285 -97 -33 rlineto
          521 -90 -521 vlineto
          -98 33 rlineto
          endchar
        </CharString>
        <CharString name="arrowdown.ss01">
          -280 171 285 hstem
          30 285 vstem
          173 171 rmoveto
          142 285 rlineto
          -285 hlineto
          endchar
        </CharString>
        <CharString name="arrowleft">
          93 callsubr
          307 259 rmoveto
          521 90 -521 hlineto
          33 98 -285 -143 285 -142 rlineto
          endchar
        </CharString>
        <CharString name="arrowleft.ss01">
          -262 201 285 hstem
          30 285 vstem
          315 201 rmoveto
          285 vlineto
          -285 -143 rlineto
          endchar
        </CharString>
        <CharString name="arrowright">
          93 callsubr
          543 162 rmoveto
          124 callsubr
          33 -98 rlineto
          -521 -90 521 hlineto
          endchar
        </CharString>
        <CharString name="arrowright.ss01">
          -262 201 285 hstem
          48 285 vstem
          48 201 rmoveto
          124 callsubr
          rlineto
          endchar
        </CharString>
        <CharString name="arrowup">
          -230 691 -20 hstem
          153 90 vstem
          153 -82 rmoveto
          90 521 hlineto
          97 -33 -142 285 -143 -285 98 33 rlineto
          endchar
        </CharString>
        <CharString name="arrowup.ss01">
          -280 516 -20 hstem
          30 285 vstem
          30 231 rmoveto
          285 hlineto
          -142 285 rlineto
          endchar
        </CharString>
        <CharString name="arrowupdn">
          -230 696 -20 hstem
          153 90 vstem
          22 callsubr
          endchar
        </CharString>
        <CharString name="arrowupdnbse">
          -230 -201 82 815 -20 hstemhm
          55 285 -187 90 hintmask 11010000
          22 callsubr
          hintmask 11100000
          -401 vmoveto
          285 82 -285 hlineto
          endchar
        </CharString>
        <CharString name="asciicircum">
          -180 444 305 hstem
          33 378 vstem
          320 444 rmoveto
          91 hlineto
          -140 305 rlineto
          -97 hlineto
          -141 -305 rlineto
          92 hlineto
          98 221 rlineto
          endchar
        </CharString>
        <CharString name="asciitilde">
          -128 243 62 callgsubr
          59 69 callgsubr
          hintmask 10110000
          436 373 rmoveto
          -64 hlineto
          -93 callsubr
          hintmask 01110000
          -100 callsubr
          hintmask 10110000
          -90 callsubr
          endchar
        </CharString>
        <CharString name="asterisk">
          -179 688 -20 hstem
          192.5 61 vstem
          249 457 rmoveto
          117 -78 34 64 -125 60 125 62 -34 63 -118 -77 10 -32 callsubr
          -70 hlineto
          9 -138 -117 78 -35 -63 126 -62 -126 -60 35 -64 117 78 -9 -137 rlineto
          70 hlineto
          endchar
        </CharString>
        <CharString name="asterisk.ss02">
          192 -14 719 hstem
          35 747 vstem
          178 -14 rmoveto
          231 170 231 -170 -90 276 232 174 rlineto
          -288 hlineto
          -85 269 -87 -269 rlineto
          -287 hlineto
          234 -174 rlineto
          endchar
        </CharString>
        <CharString name="at">
          310 -108 55 121 81 -74 53 136 68 98 88 123 55 hstemhm
          78 57 140 104 174 108 136 59 hintmask 1011111111000000
          467 -108 rmoveto
          80 62 1 2 52 hvcurveto
          56 vlineto
          -1 -17 -136 -3 -41 hhcurveto
          -54 -45 0 2 -38 hvcurveto
          -189 10 -6 54 281 vvcurveto
          252 5 69 140 19 vhcurveto
          6 46 60 1 80 hhcurveto
          96 68 -1 -10 48 hvcurveto
          116 -24 3 -76 -236 vvcurveto
          -164 -15 -2 -48 vhcurveto
          -73 215 hlineto
          122 -19 53 -172 -53 -60 -5 -8 -55 vhcurveto
          -81 vlineto
          2 20 80 4 32 hhcurveto
          107 12 -4 -79 hvcurveto
          -19 vlineto
          2 -46 -69 2 -29 hhcurveto
          -107 -27 -31 -102 hvcurveto
          hintmask 1101111111000000
          -96 42 -35 94 53 54 7 54 31 vhcurveto
          7 hlineto
          hintmask 1011111111000000
          5 -54 rlineto
          162 hlineto
          98 35 3 216 354 -10 48 -379 -379 -10 -52 -350 -349 10 -53 379 hvcurveto
          hintmask 1101111111000000
          -9 257 rmoveto
          -70 -9 10 49 48 8 8 50 hvcurveto
          116 -24 hlineto
          -72 -16 -19 -79 vhcurveto
          endchar
        </CharString>
        <CharString name="atilde">
          -81 callgsubr
          95 4 callgsubr
          47 117 -71 65 211 120 -83 126 callgsubr
          hintmask 1011010010100000
          470 743 rmoveto
          -64 hlineto
          hintmask 1011100010100000
          -93 callsubr
          hintmask 1011001011000000
          -100 callsubr
          hintmask 1011100010100000
          -10 37 41 -11 40 hhcurveto
          hintmask 1011010010100000
          78 5 45 85 hvcurveto
          hintmask 1011100101000000
          -269 42 callsubr
          hintmask 0111100101000000
          -107 callsubr
          hintmask 1011100101000000
          -100 callgsubr
          endchar
        </CharString>
        <CharString name="b">
          -40 -8 106 -98 98 313 107 154 callgsubr
          351 -8 rmoveto
          129 49 61 202 202 -47 61 -127 -68 -54 -13 -52 -32 hvcurveto
          -6 290 -120 hlineto
          hintmask 01111000
          -743 111 vlineto
          hintmask 10111000
          4 64 rlineto
          7 hlineto
          -60 31 62 -12 61 hhcurveto
          -50 106 rmoveto
          -45 -26 10 22 -15 hvcurveto
          -17 25 -3 42 0 58 0 58 3 41 25 flex1
          22 15 26 10 45 hhcurveto
          96 11 -16 -140 -142 -11 -15 -96 hvcurveto
          endchar
        </CharString>
        <CharString name="backslash">
          158 callgsubr
          284 -55 rmoveto
          106 hlineto
          -290 798 rlineto
          -107 hlineto
          endchar
        </CharString>
        <CharString name="bar">
          143 callgsubr
          -161 rmoveto
          107 904 -107 hlineto
          endchar
        </CharString>
        <CharString name="bar.ss02">
          -127 89 callsubr
          -1 500 vstem
          -1 hmoveto
          500 696 -500 hlineto
          endchar
        </CharString>
        <CharString name="braceleft">
          -280 267 58 hstemhm
          24 96 -2 111 hintmask 10100000
          240 -150 rmoveto
          85 hlineto
          0 -96 75 100 vvcurveto
          121 vlineto
          77 -31 54 -78 16 vhcurveto
          7 vlineto
          78 16 31 54 76 vvcurveto
          122 vlineto
          100 96 75 0 vhcurveto
          -85 hlineto
          0 -122 -59 -121 vvcurveto
          -116 vlineto
          -52 -10 -70 -84 vhcurveto
          hintmask 11000000
          -58 vlineto
          hintmask 10100000
          84 10 -70 -51 hvcurveto
          -117 vlineto
          -120 122 -59 0 vhcurveto
          endchar
        </CharString>
        <CharString name="braceright">
          -280 267 58 hstemhm
          115 111 -2 95 hintmask 11000000
          19 -150 rmoveto
          85 hlineto
          0 122 59 120 vvcurveto
          117 vlineto
          51 9 70 84 vhcurveto
          hintmask 10100000
          58 vlineto
          hintmask 11000000
          -84 -9 70 52 hvcurveto
          116 vlineto
          121 -122 59 0 vhcurveto
          -85 hlineto
          0 96 -75 -100 vvcurveto
          -122 vlineto
          -76 31 -54 78 -16 vhcurveto
          -7 vlineto
          -78 -16 -31 -54 -77 vvcurveto
          -121 vlineto
          -100 -96 -75 0 vhcurveto
          endchar
        </CharString>
        <CharString name="bracketleft">
          -266 -150 84 725 84 hstem
          87 110 vstem
          87 -150 rmoveto
          229 82 hlineto
          -119 4 rlineto
          721 vlineto
          119 4 rlineto
          82 -229 vlineto
          endchar
        </CharString>
        <CharString name="bracketleft.ss02">
          48 callsubr
          hvcurveto
          -348 vlineto
          endchar
        </CharString>
        <CharString name="bracketright">
          -266 -150 84 725 84 hstem
          162 110 vstem
          43 -150 rmoveto
          229 893 -229 -82 hlineto
          119 -4 rlineto
          -721 vlineto
          -119 -4 rlineto
          endchar
        </CharString>
        <CharString name="bracketright.ss02">
          -228 89 callsubr
          0 352 vstem
          0 vmoveto
          352 348 hlineto
          122 callsubr
          vhcurveto
          endchar
        </CharString>
        <CharString name="breve">
          -294 596 71 hstem
          20 -15 callgsubr
          vstem
          311 -68 callgsubr
          endchar
        </CharString>
        <CharString name="brokenbar">
          143 callgsubr
          390 rmoveto
          107 353 -107 hlineto
          -904 vmoveto
          107 353 -107 hlineto
          endchar
        </CharString>
        <CharString name="bullet">
          -244 226 235 hstem
          75 231 vstem
          306 342 rmoveto
          102 -4 17 -113 -110 -4 -17 -102 -100 4 -16 110 113 4 16 100 vhcurveto
          endchar
        </CharString>
        <CharString name="bullet.ss02">
          158 -8 60 155 60 -36 60 105 60 -35 60 155 60 hstemhm
          40 60 155 60 -36 60 105 60 -36 60 155 60 -6 callsubr
          hintmask 0010111011000000
          392 421 rmoveto
          62 50 39 73 90 -76 73 -36 -37 -76 -73 -90 -73 50 -39 63 hvcurveto
          60 vmoveto
          -30 -23 18 34 57 36 46 17 17 35 -46 -57 -34 -23 -18 -29 hvcurveto
          -189 -250 rmoveto
          hintmask 0011001100000000
          73 39 50 63 62 -39 50 -73 -90 -73 -76 -36 hvcurveto
          hintmask 0010111011000000
          -37 73 -76 90 vhcurveto
          hintmask 0011001100110000
          378 hmoveto
          89 73 76 37 36 -73 76 -89 -74 -39 -50 -62 -63 39 -50 74 hvcurveto
          -378 60 rmoveto
          -57 -46 36 17 17 46 35 57 34 18 -23 -29 -30 -18 -23 -34 hvcurveto
          378 hmoveto
          -35 -18 23 30 29 18 23 35 56 46 -35 -17 -17 -46 -36 -56 hvcurveto
          hintmask 1100000011000000
          -189 -299 rmoveto
          36 76 73 90 73 -50 39 -62 -63 -50 -39 -73 -90 76 -73 37 hvcurveto
          60 vmoveto
          -17 -36 46 57 34 23 18 30 29 23 -18 -34 -57 -35 -46 -17 hvcurveto
          endchar
        </CharString>
        <CharString name="c">
          -164 -46 callsubr
          96 callgsubr
          vstem
          415 6 -84 callgsubr
        </CharString>
        <CharString name="cacute">
          -164 -46 callsubr
          146 callgsubr
          vstem
          178 600 -101 callgsubr
          237 -599 -84 callgsubr
        </CharString>
        <CharString name="cacute.loclPLK">
          -164 -46 callsubr
          146 callgsubr
          vstem
          178 600 -75 callgsubr
          237 -599 -84 callgsubr
        </CharString>
        <CharString name="caron">
          140 callsubr
          117 599 -98 callsubr
          endchar
        </CharString>
        <CharString name="caron.loclCSY">
          112 callgsubr
          49 435 rmoveto
          84 hlineto
          44 17 callsubr
          endchar
        </CharString>
        <CharString name="ccaron">
          -164 -46 callsubr
          81 144 96 callgsubr
          vstem
          171 599 -98 callsubr
          341 -730 -84 callgsubr
        </CharString>
        <CharString name="ccedilla">
          -164 -8 100 -72 -21 419 100 -40 callgsubr
          hintmask 10110000
          415 100 rmoveto
          -5 -40 -43 -3 -32 hhcurveto
          -108 -15 24 139 135 12 28 109 36 47 -4 -5 30 hvcurveto
          94 vlineto
          9 -36 -59 6 -49 hhcurveto
          -189 -22 -91 -171 hvcurveto
          hintmask 01110000
          -149 10 -85 121 97 callsubr
          50 59 6 8 36 hvcurveto
          endchar
        </CharString>
        <CharString name="ccircumflex">
          -164 -46 callsubr
          81 144 96 callgsubr
          vstem
          74 599 -107 callgsubr
          341 -600 -84 callgsubr
        </CharString>
        <CharString name="cdotaccent">
          -164 -46 callsubr
          115 97 -40 callgsubr
          1 105 hintmask 00000000
          hintmask 11101000
          178 30 callgsubr
          237 -724 rmoveto
          94 vlineto
          -5 -40 -43 -3 -32 hhcurveto
          hintmask 11110000
          -108 -15 24 139 135 12 28 109 36 47 -4 -5 30 hvcurveto
          94 vlineto
          9 -36 -59 6 -49 hhcurveto
          -189 -22 -91 -171 -177 14 -87 199 hvcurveto
          hintmask 11101000
          50 60 6 8 36 hvcurveto
          endchar
        </CharString>
        <CharString name="cedilla">
          -432 -190 198 hstem
          20 153 vstem
          20 77 callsubr
        </CharString>
        <CharString name="cent">
          -157 -8 179 -103 103 343 104 -104 182 hstemhm
          57 127 40 88 hintmask 10011100
          224 -8 -24 callgsubr
          hintmask 01011100
          76 vlineto
          44 2 41 6 21 6 rrcurveto
          hintmask 10011100
          98 vlineto
          -5 -30 -48 -4 -34 hhcurveto
          -104 -18 23 148 145 13 27 107 34 46 -4 -5 30 hvcurveto
          hintmask 10101100
          98 vlineto
          -23 7 -41 6 -38 2 rrcurveto
          hintmask 10011100
          78 -88 -80 vlineto
          -150 -16 -17 -96 -162 vvcurveto
          -156 10 -101 157 -16 vhcurveto
          endchar
        </CharString>
        <CharString name="circumflex">
          140 callsubr
          20 599 -22 callgsubr
        </CharString>
        <CharString name="colon">
          -363 0 64 callsubr
          -510 vmoveto
          134 125 -134 hlineto
          endchar
        </CharString>
        <CharString name="comma">
          -363 -136 54 82 81 callgsubr
          50 -82 50 callsubr
        </CharString>
        <CharString name="copyright">
          115 -8 52 109 62 253 63 112 53 hstem
          81 53 105 75 291 54 vstem
          369 -8 rmoveto
          132 callsubr
          133 callsubr
          hvcurveto
          52 47 callsubr
          23 109 rmoveto
          32 40 3 4 21 hvcurveto
          60 vlineto
          -3 -21 -31 -2 -24 hhcurveto
          -90 -5 9 118 117 5 9 90 19 30 -2 -3 25 hvcurveto
          59 vlineto
          5 -19 -39 4 -33 hhcurveto
          -134 -19 -46 -143 -144 19 -45 134 hvcurveto
          endchar
        </CharString>
        <CharString name="currency">
          54 18 -21 22 -21 85 86 350 86 85 -20 21 -20 hstemhm
          108 88 callsubr
          hintmask 01110111
          123 -2 rmoveto
          85 85 rlineto
          32 -10 43 -4 56 56 43 4 32 hflex1
          hintmask 10110111
          86 -86 67 67 -78 78 rlineto
          22 42 3 66 95 vvcurveto
          95 -3 64 -21 43 vhcurveto
          77 77 -67 67 -86 -86 rlineto
          -32 10 -43 4 -56 -56 -43 -4 -32 hflex1
          hintmask 01111011
          -85 85 -67 -67 76 -76 rlineto
          -21 -43 -3 -64 -95 vvcurveto
          -95 3 -66 22 -42 vhcurveto
          -77 -77 rlineto
          283 104 rmoveto
          -110 0 20 156 156 0 18 110 110 0 -18 -156 -156 0 -20 -110 hvcurveto
          endchar
        </CharString>
        <CharString name="d">
          -40 -8 85 callgsubr
          125 callsubr
          hintmask 10011100
          15 callsubr
          hintmask 01101100
          10 callsubr
          hintmask 10011100
          -5 callgsubr
          -202 49 -60 129 hvcurveto
          50 106 rmoveto
          -57 callgsubr
          -29 -14 -26 -14 -52 hhcurveto
          endchar
        </CharString>
        <CharString name="dagger">
          -142 21 -21 439 78 171 -20 hstem
          199.5 83.5 vstem
          204 hmoveto
          75 hlineto
          8 435 135 8 rlineto
          74 vlineto
          83 callgsubr
          134 -8 rlineto
          endchar
        </CharString>
        <CharString name="daggerdbl">
          -142 21 -21 165 82.5 191.5 78 171 -20 hstemhm
          195 92 -87.5 83.5 hintmask 00000000
          hintmask 11110100
          204 hmoveto
          75 hlineto
          8 161 135 8 rlineto
          74 vlineto
          hintmask 11111000
          -135 9 rlineto
          183 vlineto
          135 8 rlineto
          74 vlineto
          hintmask 11110100
          83 callgsubr
          hintmask 11111000
          134 -8 rlineto
          -183 vlineto
          -134 -9 rlineto
          -74 vlineto
          hintmask 11110100
          134 -8 rlineto
          endchar
        </CharString>
        <CharString name="dcaron">
          -40 -8 85 callgsubr
          -83 253 0 -20 125 callsubr
          47 112 hintmask 1001011110000000
          15 callsubr
          hintmask 0110011110000000
          10 callsubr
          hintmask 1001011110000000
          -5 callgsubr
          -202 49 -60 129 hvcurveto
          hintmask 1000101110000000
          307 443 rmoveto
          84 hlineto
          44 17 callsubr
          -273 -525 rmoveto
          -96 -11 15 142 hvcurveto
          hintmask 1001011110000000
          140 11 16 96 52 27 -14 -30 13 vhcurveto
          12 -25 2 -37 0 -50 0 -50 -2 -38 -26 flex1
          hintmask 1000101110000000
          -29 -14 -26 -14 -52 hhcurveto
          endchar
        </CharString>
        <CharString name="dcroat">
          -40 -8 85 callgsubr
          72 98 -40 callgsubr
          199 134 hintmask 10011110
          575 688 rmoveto
          -65 55 -120 -55 -124 -98 124 hlineto
          hintmask 10101110
          -137 -7 vlineto
          hintmask 10011110
          -5 callgsubr
          -202 49 -60 129 60 63 12 60 31 hvcurveto
          7 hlineto
          hintmask 01011110
          4 -64 rlineto
          111 590 65 hlineto
          hintmask 10011110
          -199 -449 rmoveto
          -29 -14 -26 -14 -52 hhcurveto
          -57 callgsubr
          endchar
        </CharString>
        <CharString name="degree">
          -232 397 59 180 60 hstem
          57 76 126 77 vstem
          196 48 callgsubr
          59 vmoveto
          -63 0 14 76 76 0 14 63 63 0 -14 -76 -76 0 -14 -63 hvcurveto
          endchar
        </CharString>
        <CharString name="dialog">
          180 90 callgsubr
          59 60 567 60 vstem
          306 -212 rmoveto
          213 212 rlineto
          227 688 -687 -688 247 60 -187 568 567 -568 -192 hlineto
          -188 -187 rlineto
          endchar
        </CharString>
        <CharString name="dieresis">
          -284 633 97 hstem
          20 105 91 105 vstem
          20 633 -85 callsubr
          endchar
        </CharString>
        <CharString name="divide">
          -85 21 92 92 95 92 91 145 callsubr
          392 rmoveto
          95 91 -95 hlineto
          -152 -278 rmoveto
          69 callsubr
          152 -279 rmoveto
          95 92 -95 hlineto
          endchar
        </CharString>
        <CharString name="dollar">
          -87 -8 179 -103 103 344 103 -103 181 hstemhm
          60 119 48 88 43 119 hintmask 10011110
          227 -8 rmoveto
          88 76 hlineto
          98 5 64 31 129 vvcurveto
          119 -36 26 -71 10 vhcurveto
          -140 17 rlineto
          -46 6 -5 2 47 vvcurveto
          51 29 4 77 47 65 -4 -6 51 vhcurveto
          hintmask 10101110
          97 vlineto
          -34 7 -57 7 -42 2 rrcurveto
          hintmask 10011110
          78 -88 vlineto
          hintmask 10101110
          -79 vlineto
          -99 -6 -68 -34 -118 vvcurveto
          -86 19 -58 97 -13 vhcurveto
          126 -17 rlineto
          48 -6 8 -1 -49 vvcurveto
          -43 -7 -15 -95 vhcurveto
          -90 -84 9 -5 hhcurveto
          hintmask 01011110
          -97 vlineto
          39 -7 61 -6 50 -2 rrcurveto
          endchar
        </CharString>
        <CharString name="dotaccent">
          -480 633 97 hstem
          20 105 vstem
          20 30 callgsubr
          endchar
        </CharString>
        <CharString name="dotbelowcomb">
          -38 callgsubr
          hstem
          -198 134 vstem
          -198 -187 -92 callgsubr
        </CharString>
        <CharString name="dotlessi">
          -11 callsubr
          52 callgsubr
          75 hmoveto
          -39 callsubr
          endchar
        </CharString>
        <CharString name="e">
          -60 callgsubr
          44 callgsubr
          501 254 -103 callgsubr
        </CharString>
        <CharString name="eacute">
          -60 callgsubr
          82 143 44 callgsubr
          451 738 -66 callgsubr
          181 -346 -103 callgsubr
        </CharString>
        <CharString name="ebreve">
          -60 callgsubr
          78 71 -40 callgsubr
          -44 -15 callgsubr
          -38 115 hintmask 00000000
          hintmask 11110110
          277 596 rmoveto
          133 14 61 86 hvcurveto
          -72 hlineto
          -48 -2 -28 -73 -73 0 28 48 vhcurveto
          -71 hlineto
          -86 12 -61 132 vhcurveto
          hintmask 11111001
          224 -342 -103 callgsubr
        </CharString>
        <CharString name="ecaron">
          -60 callgsubr
          81 144 44 callgsubr
          338 599 18 callsubr
          282 -69 callgsubr
        </CharString>
        <CharString name="ecircumflex">
          -60 callgsubr
          81 144 44 callgsubr
          282 57 callgsubr
          295 -69 callgsubr
        </CharString>
        <CharString name="edieresis">
          -60 callgsubr
          115 97 -40 callgsubr
          -42 105 91 105 -50 115 hintmask 11110110
          240 730 58 callgsubr
          hintmask 11111001
          65 -379 -103 callgsubr
        </CharString>
        <CharString name="edotaccent">
          -60 callgsubr
          115 97 96 callgsubr
          49 105 55 115 vstem
          331 730 151 callgsubr
          170 -379 -103 callgsubr
        </CharString>
        <CharString name="egrave">
          -60 callgsubr
          82 143 44 callgsubr
          341 600 -52 callgsubr
          248 -346 -103 callgsubr
        </CharString>
        <CharString name="eight">
          58 158 callsubr
          65 96 callsubr
          341 -62 callsubr
        </CharString>
        <CharString name="eight.dnom">
          -232 -4 60 108 55 104 60 hstemhm
          39 37 callsubr
          hintmask 11110010
          196 -4 -53 callgsubr
        </CharString>
        <CharString name="eight.numr">
          -232 304 60 108 55 104 60 hstemhm
          39 37 callsubr
          hintmask 11110010
          196 304 -53 callgsubr
        </CharString>
        <CharString name="eight.tnum">
          35 158 callsubr
          54 96 callsubr
          330 -62 callsubr
        </CharString>
        <CharString name="ellipsis">
          162 0 125 hstem
          64 134 128 135 128 134 vstem
          64 hmoveto
          134 125 -134 hlineto
          262 -125 rmoveto
          135 125 -135 hlineto
          263 -125 -92 callgsubr
        </CharString>
        <CharString name="emacron">
          -60 callgsubr
          118 106 -40 callgsubr
          -28 259 -22 115 hintmask 00000000
          hintmask 11110100
          408 742 147 callgsubr
          hintmask 11111010
          93 -382 -103 callgsubr
        </CharString>
        <CharString name="emdash">
          250 256 95 hstem
          50 775 vstem
          50 256 rmoveto
          775 95 -775 hlineto
          endchar
        </CharString>
        <CharString name="endash">
          -151 256 95 hstem
          50 374 vstem
          50 256 rmoveto
          137 callgsubr
          endchar
        </CharString>
        <CharString name="eng">
          63 callsubr
          356 518 rmoveto
          -84 -49 -24 -49 -25 hvcurveto
          -8 hlineto
          hintmask 11101100
          -54 callsubr
          hintmask 11011100
          -61 callsubr
          -324 31 callsubr
          -92 vlineto
          166 44 14 157 hvcurveto
          348 vlineto
          130 -23 69 -140 vhcurveto
          endchar
        </CharString>
        <CharString name="eogonek">
          -68 149 callsubr
          99 124 81 123 99 -40 callgsubr
          119 166 -76 115 hintmask 11111010
          501 254 rmoveto
          181 -8 83 -206 -208 -23 -82 -182 -191 20 -71 221 vhcurveto
          hintmask 11111100
          20 22 1 1 22 hvcurveto
          -41 -36 -24 -36 -41 vvcurveto
          -40 24 -37 88 121 callgsubr
          17 16 37 49 42 34 19 vhcurveto
          -86 callsubr
          hintmask 11111010
          324 hlineto
          -216 204 rmoveto
          78 23 -14 -109 hvcurveto
          -209 hlineto
          101 1 12 22 95 hhcurveto
          endchar
        </CharString>
        <CharString name="equal">
          -85 105 95 105 95 150 callsubr
          70 305 rmoveto
          69 callsubr
          -295 vmoveto
          69 callsubr
          endchar
        </CharString>
        <CharString name="estimated">
          84 -8 34 297 34 305 34 60 callsubr
          -47 36 hintmask 11111000
          354 696 rmoveto
          -277 -12 -73 callgsubr
          12 -72 277 hvcurveto
          hintmask 11110100
          226 43 34 174 10 hvcurveto
          -36 hlineto
          -156 -10 -36 -18 -177 hhcurveto
          -170 -11 7 290 hvcurveto
          323 hlineto
          hintmask 11111000
          128 21 hlineto
          -45 callsubr
          vhcurveto
          -34 vmoveto
          153 9 -7 -298 hvcurveto
          -323 hlineto
          298 8 7 153 vhcurveto
          endchar
        </CharString>
        <CharString name="eth">
          -47 -8 99 327 99 152 74 77 callgsubr
          73 -7 62 -12 54 hvcurveto
          -15 66 -22 53 -28 45 65 11 rcurveline
          75 vlineto
          -114 -18 -19 21 -19 18 -18 17 rlinecurve
          -130 -4 hlineto
          23 -20 24 -24 24 -26 -67 -10 rcurveline
          -76 vlineto
          115 18 19 -29 16 -33 14 -37 rlinecurve
          -3 -3 rlineto
          10 -26 -34 8 -51 hhcurveto
          -183 -14 -85 -178 19 callgsubr
        </CharString>
        <CharString name="exclam">
          -13 callgsubr
        </CharString>
        <CharString name="exclam.case">
          -13 callgsubr
        </CharString>
        <CharString name="exclam.ss02">
          169 -8 45 72 82 460 45 hstem
          45 45 273 68 273 45 vstem
          397 -8 rmoveto
          194 158 158 194 194 -158 158 -194 -194 -158 -158 -194 -194 158 -158 194 hvcurveto
          45 vmoveto
          -169 -138 138 169 169 138 138 169 169 138 -138 -169 -169 -138 -138 -169 hvcurveto
          -20 231 rmoveto
          40 hlineto
          0 14 92 120 vvcurveto
          99 -68 -99 vlineto
          -120 14 -92 0 vhcurveto
          -14 -159 rmoveto
          68 82 -68 hlineto
          endchar
        </CharString>
        <CharString name="exclamdbl">
          -104 0 125 563 -20 hstemhm
          80 142 -138 134 92 142 -138 134 hintmask 00000000
          hintmask 11101000
          105 218 rmoveto
          -6 callgsubr
          230 hmoveto
          -6 callgsubr
          hintmask 11010100
          -251 -218 rmoveto
          134 125 -134 hlineto
          230 -125 -92 callgsubr
        </CharString>
        <CharString name="exclamdown">
          -345 385 125 hstemhm
          69 142 -138 134 hintmask 10100000
          73 94 callgsubr
          hintmask 11000000
          53 callgsubr
        </CharString>
        <CharString name="exclamdown.case">
          -334 21 -21 563 125 hstemhm
          69 142 -138 134 hintmask 11010000
          73 563 rmoveto
          134 125 -134 hlineto
          hintmask 11100000
          53 callgsubr
        </CharString>
        <CharString name="f">
          -229 59 callgsubr
          vstem
          123 hmoveto
          120 410 128 100 -128 73 hlineto
          -46 callgsubr
          endchar
        </CharString>
        <CharString name="f_f">
          167 59 callgsubr
          276 120 vstem
          123 hmoveto
          120 410 128 100 -128 73 hlineto
          -46 callgsubr
          396 -410 rmoveto
          120 410 128 100 -128 73 hlineto
          -46 callgsubr
          endchar
        </CharString>
        <CharString name="fi">
          41 82 callgsubr
          120 113 -91 90 hstemhm
          123 120 228 120 hintmask 11101100
          469 -13 callsubr
          -346 -743 rmoveto
          120 410 128 100 -128 hlineto
          hintmask 11011100
          73 vlineto
          -46 callgsubr
          348 -410 -37 callsubr
        </CharString>
        <CharString name="five">
          -3 -8 136 callgsubr
          157 109 hstem
          83 116 232 130 vstem
          75 -19 callgsubr
        </CharString>
        <CharString name="five.dnom">
          -264 -4 114 callsubr
          64 -55 callgsubr
          endchar
        </CharString>
        <CharString name="five.numr">
          -264 304 114 callsubr
          372 -55 callgsubr
          endchar
        </CharString>
        <CharString name="five.tnum">
          35 -8 136 callgsubr
          157 109 hstem
          106 116 232 130 vstem
          98 -19 callgsubr
        </CharString>
        <CharString name="fiveeighths">
          282 107 callgsubr
          85 62 -43 60 98 61 81 63 hstemhm
          51 71 121 81 229 37 callsubr
          hintmask 0000000000000000
          hintmask 0111011111001000
          171 hmoveto
          16 callgsubr
          -573 -316 -55 callgsubr
          hintmask 1010111111001000
          663 -376 -17 callgsubr
          hintmask 1010111110110000
          -59 callgsubr
          hintmask 1010111111001000
          -5 callsubr
          hintmask 1010111110110000
          -49 callgsubr
          hintmask 1010111111001000
          -51 callgsubr
        </CharString>
        <CharString name="fl">
          41 59 callgsubr
          228 120 vstem
          471 hmoveto
          44 callsubr
          -348 -743 rmoveto
          120 410 128 100 -128 73 hlineto
          -46 callgsubr
          endchar
        </CharString>
        <CharString name="florin">
          -181 -192 90 512 100 141 91 hstem
          -121 573 vstem
          433 651 rmoveto
          19 91 rlineto
          -222 -27 -11 -221 -49 hvcurveto
          -100 hlineto
          -20 -100 rlineto
          100 hlineto
          -95 -443 rlineto
          -62 -14 -18 -7 -109 hhcurveto
          -19 -90 rlineto
          214 32 7 207 46 hvcurveto
          82 388 rlineto
          129 hlineto
          20 100 rlineto
          -128 hlineto
          127 26 -14 14 147 hhcurveto
          endchar
        </CharString>
        <CharString name="four">
          21 21 -21 148 108 432 -20 hstem
          385 -20 callsubr
          385 13 callsubr
        </CharString>
        <CharString name="four.dnom">
          -256 0 142 -62 62 hstemhm
          218 79 hintmask 10100000
          218 hmoveto
          79 hlineto
          hintmask 01100000
          80 51 vlineto
          hintmask 10100000
          62 -51 106 -55 vlineto
          117 callgsubr
          hintmask 01100000
          144 callgsubr
        </CharString>
        <CharString name="four.numr">
          -256 388 62 hstem
          218 79 vstem
          218 308 rmoveto
          79 80 51 62 -51 106 -55 hlineto
          117 callgsubr
          144 callgsubr
        </CharString>
        <CharString name="four.ss01">
          21 21 -21 147 110 320 111 hstem
          385 -20 callsubr
          385 hmoveto
          128 147 95 110 -95 431 -180 hlineto
          -293 -440 rlineto
          -101 345 vlineto
          -218 110 rmoveto
          214 320 rlineto
          4 -320 hlineto
          endchar
        </CharString>
        <CharString name="four.tnum">
          35 21 -21 148 108 432 -20 hstem
          390 -20 callsubr
          390 13 callsubr
        </CharString>
        <CharString name="fraction">
          -472 136 callsubr
          -190 533 vstem
          -190 hmoveto
          16 callgsubr
          endchar
        </CharString>
        <CharString name="g">
          -21 callsubr
          -40 callgsubr
          195 138 hintmask 11011100
          267 -206 84 callsubr
          hintmask 11101100
          449 -111 vlineto
          hintmask 11011100
          -90 callgsubr
        </CharString>
        <CharString name="g_tilde.loclGUA">
          -21 callsubr
          96 93 callgsubr
          -73 65 203 138 -93 126 callgsubr
          hintmask 1101010100100000
          481 744 rmoveto
          -64 hlineto
          hintmask 1101100100100000
          -93 callsubr
          hintmask 1101001011000000
          -100 callsubr
          hintmask 1101100100100000
          -10 37 41 -11 40 hhcurveto
          hintmask 1101010100100000
          78 5 45 85 hvcurveto
          hintmask 1110100101000000
          -214 -950 84 callsubr
          449 -111 vlineto
          hintmask 1101100101000000
          -92 callsubr
          hintmask 1110100101000000
          -6 37 73 -5 64 hhcurveto
          hintmask 1101100101000000
          -89 callgsubr
        </CharString>
        <CharString name="gbreve">
          -21 callsubr
          78 71 -40 callgsubr
          -30 -15 callgsubr
          -66 138 -6 callsubr
          hintmask 1101101100000000
          438 -68 callgsubr
          -171 -949 rmoveto
          hintmask 1110110010000000
          29 callgsubr
          449 -111 vlineto
          hintmask 1101110010000000
          -92 callsubr
          hintmask 1101101100000000
          -6 37 73 -5 64 hhcurveto
          hintmask 1101110010000000
          -89 callgsubr
        </CharString>
        <CharString name="gcaron">
          -21 callsubr
          81 144 -40 callgsubr
          195 138 hintmask 11011110
          233 599 -98 callsubr
          131 -942 84 callsubr
          hintmask 11101110
          449 -111 vlineto
          hintmask 11011110
          -90 callgsubr
        </CharString>
        <CharString name="gcircumflex">
          -21 callsubr
          81 144 -40 callgsubr
          195 138 hintmask 11011110
          136 599 -107 callgsubr
          131 -812 84 callsubr
          hintmask 11101110
          449 -111 vlineto
          hintmask 11011110
          -90 callgsubr
        </CharString>
        <CharString name="gcommaaccent">
          -21 callsubr
          82 119 57 51 -40 callgsubr
          52 128 15 138 -6 callsubr
          hintmask 1101111110000000
          370 49 callgsubr
          -103 -982 rmoveto
          hintmask 1110111010000000
          29 callgsubr
          449 -111 vlineto
          hintmask 1101111010000000
          -92 callsubr
          hintmask 1101111110000000
          -6 37 73 -5 64 hhcurveto
          hintmask 1101111010000000
          -89 callgsubr
        </CharString>
        <CharString name="gdotaccent">
          -21 callsubr
          115 97 -40 callgsubr
          63 105 27 138 hintmask 00000000
          hintmask 11011111
          240 30 callgsubr
          27 -936 rmoveto
          hintmask 11101101
          29 callgsubr
          449 -111 vlineto
          hintmask 11011101
          -92 callsubr
          hintmask 11011111
          -6 37 73 -5 64 hhcurveto
          hintmask 11011101
          -89 callgsubr
        </CharString>
        <CharString name="germandbls">
          -22 0 99 282 100 169 100 -19 callsubr
          92 134 -5 121 -112 121 hintmask 11110010
          328 hmoveto
          187 31 71 169 130 -43 48 -82 15 hvcurveto
          4 vlineto
          hintmask 11110100
          80 13 36 41 82 vvcurveto
          115 -45 62 -183 -178 -56 -64 -135 vhcurveto
          -551 120 534 vlineto
          105 33 11 76 89 23 -13 -80 -60 -23 -16 -83 vhcurveto
          hintmask 11111000
          -23 -100 23 hlineto
          hintmask 11110010
          91 24 -15 -123 -137 -12 -7 -105 hvcurveto
          -38 -99 hlineto
          endchar
        </CharString>
        <CharString name="grave">
          123 callgsubr
          219 vstem
          151 600 -91 callsubr
          endchar
        </CharString>
        <CharString name="gravecomb">
          600 83 callsubr
          -108 600 -91 callsubr
          endchar
        </CharString>
        <CharString name="gravecomb.case">
          745 83 callsubr
          -108 745 -91 callsubr
          endchar
        </CharString>
        <CharString name="greater">
          -84 45 416 150 callsubr
          70 45 102 callgsubr
          297 -110 -297 -111 rlineto
          endchar
        </CharString>
        <CharString name="greaterequal">
          -84 0 95 150 callsubr
          70 174 102 callgsubr
          298 -110 -298 -111 rlineto
          -271 vmoveto
          69 callsubr
          endchar
        </CharString>
        <CharString name="guillemotleft">
          -136 510 -20 hstem
          35 394 vstem
          167 99 20 callgsubr
          313 -205 20 callgsubr
          endchar
        </CharString>
        <CharString name="guillemotright">
          -136 510 -20 hstem
          60 394 vstem
          60 99 76 callgsubr
          72 -205 76 callgsubr
          endchar
        </CharString>
        <CharString name="guilsinglleft">
          -317 510 -20 hstem
          34 213 vstem
          166 99 20 callgsubr
          endchar
        </CharString>
        <CharString name="guilsinglright">
          -317 510 -20 hstem
          60 214 vstem
          60 99 rmoveto
          82 hlineto
          132 205 -132 206 rlineto
          -82 hlineto
          109 -206 rlineto
          endchar
        </CharString>
        <CharString name="h">
          -31 21 -21 411 106 24 callsubr
          399 hmoveto
          -32 callgsubr
          endchar
        </CharString>
        <CharString name="hbar">
          -31 21 -21 411 106 73 98 24 callsubr
          355 517 rmoveto
          -80 -47 -21 -47 -26 hvcurveto
          -7 141 124 98 -124 55 -120 -55 -65 -98 65 -590 14 callsubr
          -270 120 319 vlineto
          130 -23 68 -141 vhcurveto
          endchar
        </CharString>
        <CharString name="hcircumflex">
          -31 21 -21 411 106 260 144 24 callsubr
          -22 777 -107 callgsubr
          421 -784 rmoveto
          -32 callgsubr
          endchar
        </CharString>
        <CharString name="hookabovecomb">
          751 62 hstem
          -214 66 44 79 vstem
          -214 608 rmoveto
          66 hlineto
          20 3 3 34 10 vhcurveto
          -106 callsubr
          endchar
        </CharString>
        <CharString name="hookabovecomb.case">
          876 62 hstem
          -214 66 44 79 vstem
          -214 733 rmoveto
          66 hlineto
          20 3 3 34 10 vhcurveto
          -106 callsubr
          endchar
        </CharString>
        <CharString name="house">
          119 0 74 549 73 0 -20 hstemhm
          50.5 88 467 88 hintmask 10111000
          51 hmoveto
          642 hlineto
          1 418 -280 278 rlineto
          -84 hlineto
          -280 -278 rlineto
          89 -344 rmoveto
          -1 315 rlineto
          hintmask 11011000
          234 234 234 -234 -1 -315 rlineto
          endchar
        </CharString>
        <CharString name="hungarumlaut">
          -203 608 127 hstem
          20 382 vstem
          20 608 -80 callgsubr
          endchar
        </CharString>
        <CharString name="hyphen">
          65 callsubr
        </CharString>
        <CharString name="i">
          -355 21 124 callgsubr
          52 callgsubr
          73 -13 callsubr
          2 -743 -37 callsubr
        </CharString>
        <CharString name="i.loclTRK">
          -355 21 98 callgsubr
          hintmask 11101000
          82 30 callgsubr
          hintmask 11110000
          -7 -730 -37 callsubr
        </CharString>
        <CharString name="iacute">
          -11 callsubr
          110 143 52 callgsubr
          78 600 -101 callgsubr
          -3 -605 -37 callsubr
        </CharString>
        <CharString name="iacute_j.loclNLD">
          -85 -200 92 129 -3 callgsubr
          110 143 161 callsubr
          150 120 vstem
          82 600 -101 callgsubr
          270 -5 -101 callgsubr
          -277 -605 -41 callsubr
          180 -710 -72 callgsubr
        </CharString>
        <CharString name="ibreve">
          -11 callsubr
          106 71 hstemhm
          -11 71 15 120 13 72 148 callgsubr
          280 -68 callgsubr
          hintmask 11101000
          -205 -743 -37 callsubr
        </CharString>
        <CharString name="icircumflex">
          -11 callsubr
          109 144 52 callgsubr
          -22 599 -107 callgsubr
          97 -606 -37 callsubr
        </CharString>
        <CharString name="idieresis">
          -11 callsubr
          143 97 hstemhm
          -15 105 -15 120 -14 105 hintmask 00000000
          hintmask 11110100
          -15 633 -85 callsubr
          hintmask 11101000
          -106 -730 -37 callsubr
        </CharString>
        <CharString name="igrave">
          -11 callsubr
          110 143 52 callgsubr
          107 600 -91 callsubr
          99 -738 -37 callsubr
        </CharString>
        <CharString name="ij">
          -85 59 callsubr
          161 callsubr
          150 120 vstem
          73 -13 callsubr
          270 -113 rmoveto
          124 113 -124 hlineto
          -268 -743 -41 callsubr
          180 -710 -72 callgsubr
        </CharString>
        <CharString name="imacron">
          -11 callsubr
          146 106 52 callgsubr
          5 636 -49 callsubr
          70 -742 -37 callsubr
        </CharString>
        <CharString name="infinity">
          412 45 88 246 88 hstem
          58 93 734 93 vstem
          284 45 rmoveto
          138 59 61 73 38 hvcurveto
          -73 38 59 -61 139 hhcurveto
          184 39 75 136 134 -39 77 -184 -139 -59 -63 -71 -38 hvcurveto
          71 -38 -59 63 -138 hhcurveto
          -184 -42 -77 -134 -136 42 -75 184 hvcurveto
          4 88 rmoveto
          -114 -23 34 89 88 23 35 114 116 38 -61 -62 26 hvcurveto
          -62 -26 -38 -61 -116 hhcurveto
          463 hmoveto
          -117 -39 61 62 -24 hvcurveto
          62 24 39 61 117 hhcurveto
          112 22 -35 -88 -89 -22 -34 -112 hvcurveto
          endchar
        </CharString>
        <CharString name="integral">
          -219 -190 90 706 90 hstemhm
          115 121 -73 121 hintmask 11100000
          34 -190 rmoveto
          hintmask 11010000
          178 72 7 133 12 -1 13 -1 15 hvcurveto
          hintmask 11100000
          -44 525 rlineto
          -1 14 -1 16 7 vvcurveto
          48 27 6 102 vhcurveto
          90 vlineto
          -179 -71 -7 -133 -12 1 -14 1 -14 hvcurveto
          hintmask 11010000
          43 -519 rlineto
          2 -20 1 -14 -9 vvcurveto
          -48 -27 -6 -102 vhcurveto
          endchar
        </CharString>
        <CharString name="iogonek">
          -355 -196 72 145 98 callgsubr
          hintmask 11110100
          187 730 151 callgsubr
          hintmask 11111000
          -10 -757 rmoveto
          -34 -11 16 18 34 37 39 26 17 hvcurveto
          510 -120 -510 17 vlineto
          -36 64 callgsubr
          endchar
        </CharString>
        <CharString name="itilde">
          -11 callsubr
          124 4 callgsubr
          -54 65 64 120 64 64 hintmask 00000000
          hintmask 11010111
          323 744 rmoveto
          -64 hlineto
          hintmask 11100111
          -93 callsubr
          hintmask 11001111
          -100 callsubr
          hintmask 11100111
          -10 37 41 -11 40 hhcurveto
          hintmask 11010111
          78 5 45 85 hvcurveto
          hintmask 11100111
          -248 -744 -37 callsubr
        </CharString>
        <CharString name="j">
          -355 -200 92 618 -20 140 113 52 callgsubr
          73 -13 callsubr
          -88 -943 -72 callgsubr
        </CharString>
        <CharString name="jcircumflex">
          -355 -200 92 618 -20 109 144 52 callgsubr
          -22 599 -107 callgsubr
          7 -806 -72 callgsubr
        </CharString>
        <CharString name="k">
          -74 21 -21 206 100 204 -20 52 callgsubr
          7 callsubr
          437 -120 -743 120 206 47 hlineto
          endchar
        </CharString>
        <CharString name="kcommaaccent">
          -74 -16 callgsubr
          83 -21 206 100 204 -20 -19 callsubr
          23 128 hintmask 11111100
          7 callsubr
          437 -120 -743 120 206 47 hlineto
          hintmask 11111110
          -37 -444 -87 callgsubr
        </CharString>
        <CharString name="kgreenlandic">
          -74 21 -21 206 100 204 -20 52 callgsubr
          7 callsubr
          204 -120 -510 120 206 47 hlineto
          endchar
        </CharString>
        <CharString name="l">
          -355 21 -21 hstem
          75 120 160 callgsubr
          endchar
        </CharString>
        <CharString name="lacute">
          -355 21 -21 778 143 52 callgsubr
          82 778 -101 callgsubr
          -7 -783 rmoveto
          44 callsubr
          endchar
        </CharString>
        <CharString name="lcaron">
          -355 21 -21 435 253 0 -20 -19 callsubr
          46 112 hintmask 10111000
          75 hmoveto
          44 callsubr
          hintmask 11011000
          150 -308 rmoveto
          84 hlineto
          44 17 callsubr
          endchar
        </CharString>
        <CharString name="lcommaaccent">
          -355 -16 callgsubr
          83 -21 -19 callsubr
          -66 76 hintmask 11110000
          75 hmoveto
          44 callsubr
          hintmask 11101000
          -11 -981 rmoveto
          -51 vlineto
          hintmask 11110000
          119 callsubr
          hintmask 11101000
          52 -17 hlineto
          -34 -14 -6 -51 vhcurveto
          endchar
        </CharString>
        <CharString name="ldot">
          -301 21 -21 237 125 161 callsubr
          37 134 160 callgsubr
          157 -506 -92 callgsubr
        </CharString>
        <CharString name="leftOpenDialog">
          0 90 callgsubr
          0 60 vstem
          626 628 rmoveto
          60 -566 vlineto
          -60 -688 59 hlineto
          567 60 -566 568 hlineto
          endchar
        </CharString>
        <CharString name="less">
          -84 45 416 hstem
          71 400 vstem
          471 45 66 callsubr
          endchar
        </CharString>
        <CharString name="lessequal">
          -84 0 95 150 callsubr
          470 174 66 callsubr
          -331 vmoveto
          69 callsubr
          endchar
        </CharString>
        <CharString name="logicalnot">
          -86 206 96 hstem
          376 93 vstem
          376 53 rmoveto
          93 249 -399 -96 306 hlineto
          endchar
        </CharString>
        <CharString name="longs">
          -249 59 callgsubr
          vstem
          123 hmoveto
          120 583 hlineto
          -46 callgsubr
          endchar
        </CharString>
        <CharString name="lozenge">
          -85 0 84 -63 -21 603 85 0 -20 hstemhm
          50 439 hintmask 01011000
          220 hmoveto
          99 hlineto
          170 344 -170 344 rlineto
          -99 hlineto
          -170 -344 rlineto
          hintmask 10101000
          220 -260 rmoveto
          -128 260 128 259 127 -259 rlineto
          endchar
        </CharString>
        <CharString name="lslash">
          -346 21 -21 hstem
          79 120 vstem
          79 hmoveto
          120 345 hlineto
          54 20 rlineto
          96 vlineto
          -54 -20 rlineto
          302 -120 -346 vlineto
          -54 -19 rlineto
          -95 vlineto
          54 19 rlineto
          endchar
        </CharString>
        <CharString name="m">
          248 21 25 callgsubr
          -19 callsubr
          181 120 181 120 hintmask 10111100
          677 hmoveto
          86 callgsubr
          69 -129 -79 -50 -25 -48 -24 vhcurveto
          -8 hlineto
          49 -18 -38 24 -82 hhcurveto
          -78 -47 -25 -48 -24 hvcurveto
          -7 hlineto
          hintmask 11011100
          -54 callsubr
          hintmask 10111100
          105 11 43 83 78 9 -10 -131 vhcurveto
          -270 120 263 vlineto
          106 11 42 83 78 9 -10 -131 vhcurveto
          endchar
        </CharString>
        <CharString name="macron">
          65 callgsubr
        </CharString>
        <CharString name="minus">
          -85 205 95 150 callsubr
          70 205 rmoveto
          69 callsubr
          endchar
        </CharString>
        <CharString name="minute">
          -383 688 -20 hstem
          63.5 118 vstem
          53 375 60 callgsubr
          endchar
        </CharString>
        <CharString name="multiply">
          -130 71 362 hstem
          67 361 vstem
          247 185 rmoveto
          114 -114 67 67 -114 114 114 114 -67 67 -114 -114 -113 113 -67 -67 113 -113 -113 -113 67 -67 rlineto
          endchar
        </CharString>
        <CharString name="n">
          -31 21 113 callsubr
          hintmask 10111000
          399 hmoveto
          -65 callsubr
          hintmask 11011000
          -54 callsubr
          hintmask 10111000
          2 callsubr
        </CharString>
        <CharString name="nacute">
          -31 21 25 callgsubr
          82 157 callgsubr
          hintmask 10111100
          244 600 -101 callgsubr
          155 -605 -47 callsubr
        </CharString>
        <CharString name="nacute.loclPLK">
          -31 21 25 callgsubr
          82 157 callgsubr
          hintmask 10111100
          244 600 -75 callgsubr
          155 -605 -47 callsubr
        </CharString>
        <CharString name="napostrophe">
          58 21 25 callgsubr
          2 51 79 93 hstemhm
          24 128 12 -47 callgsubr
          hintmask 00000000
          hintmask 10011111
          49 callsubr
          477 -571 rmoveto
          46 callgsubr
          hintmask 10101011
          130 -23 69 -140 -84 -49 -24 -49 -25 vhcurveto
          -8 hlineto
          hintmask 11001011
          -54 callsubr
          hintmask 10101011
          2 callsubr
        </CharString>
        <CharString name="ncaron">
          -31 21 25 callgsubr
          81 144 -50 callsubr
          hintmask 10111100
          237 599 -98 callsubr
          259 -736 -47 callsubr
        </CharString>
        <CharString name="ncommaaccent">
          -31 -16 callgsubr
          83 25 callgsubr
          -19 callsubr
          44 128 32 120 hintmask 11101111
          399 hmoveto
          -65 callsubr
          hintmask 11110111
          -54 callsubr
          hintmask 11101111
          -61 callsubr
          -173 -508 -87 callgsubr
        </CharString>
        <CharString name="nine">
          39 131 callsubr
          61 126 282 130 vstem
          313 -8 rmoveto
          136 74 22 73 38 hvcurveto
          29 55 9 83 124 vvcurveto
          113 -6 77 -19 52 vhcurveto
          93 -33 -73 12 -148 -25 callsubr
        </CharString>
        <CharString name="nine.dnom">
          -247 -4 104 callgsubr
          -4 -40 callsubr
        </CharString>
        <CharString name="nine.numr">
          -247 304 104 callgsubr
          304 -40 callsubr
        </CharString>
        <CharString name="nine.ss01">
          27 21 -21 265 106 217 108 hstem
          50 125 296 130 vstem
          166 hmoveto
          153 hlineto
          79 54 203 189 214 vvcurveto
          162 -47 77 -229 -228 -47 -77 -140 -137 31 -77 185 74 44 7 18 36 vhcurveto
          4 -2 -69 -137 -132 -103 -57 -42 rlinecurve
          159 365 rmoveto
          -116 -34 4 105 91 29 17 121 109 37 -6 -113 -79 -35 -19 -111 hvcurveto
          endchar
        </CharString>
        <CharString name="nine.tnum">
          35 131 callsubr
          55 126 282 130 vstem
          307 -8 rmoveto
          130 73 20 65 40 hvcurveto
          33 54 10 86 132 vvcurveto
          125 -8 80 -23 52 vhcurveto
          79 -36 -73 11 -139 -25 callsubr
        </CharString>
        <CharString name="notequal">
          -85 0 200 -95 95 105 95 -95 205 hstemhm
          70 400 hintmask 01101000
          236 105 rmoveto
          234 95 -190 hlineto
          49 105 rlineto
          141 95 -96 hlineto
          hintmask 01011000
          51 110 rlineto
          -80 hlineto
          hintmask 01101000
          -51 -110 rlineto
          -224 -95 179 hlineto
          -49 -105 rlineto
          -130 -95 86 hlineto
          hintmask 10101000
          -49 -105 rlineto
          80 hlineto
          endchar
        </CharString>
        <CharString name="ntilde">
          -31 21 25 callgsubr
          95 4 callgsubr
          75 120 -84 65 223 120 -95 126 callgsubr
          hintmask 1010101001000000
          488 743 rmoveto
          -64 hlineto
          hintmask 1011001001000000
          -93 callsubr
          hintmask 1010010110000000
          -100 callsubr
          hintmask 1011001001000000
          -10 37 41 -11 40 hhcurveto
          hintmask 1010101001000000
          78 5 45 85 hvcurveto
          hintmask 1011001010000000
          -89 -743 rmoveto
          -65 callsubr
          hintmask 1101001010000000
          -54 callsubr
          hintmask 1011001010000000
          2 callsubr
        </CharString>
        <CharString name="numbersign">
          133 21 -21 182 83 153 83 187 -20 hstem
          59 580 vstem
          344 hmoveto
          85 hlineto
          42 182 rlineto
          131 83 -112 hlineto
          35 153 rlineto
          114 83 -95 141 callgsubr
          -149 141 callgsubr
          -129 -83 110 hlineto
          -35 -153 rlineto
          -112 -83 93 hlineto
          -42 -182 rlineto
          85 hlineto
          42 182 rlineto
          149 hlineto
          54 236 rmoveto
          -35 -153 rlineto
          -149 hlineto
          35 153 rlineto
          endchar
        </CharString>
        <CharString name="o">
          -51 -46 callsubr
          23 callsubr
          287 -8 -102 callgsubr
        </CharString>
        <CharString name="oacute">
          -51 -46 callsubr
          82 143 23 callsubr
          236 600 -101 callgsubr
          51 -613 -102 callgsubr
        </CharString>
        <CharString name="oacute.loclPLK">
          -51 -46 callsubr
          82 143 23 callsubr
          234 600 -75 callgsubr
          53 -613 -102 callgsubr
        </CharString>
        <CharString name="obreve">
          -51 -46 callsubr
          78 71 -40 callgsubr
          -36 -15 callgsubr
          -35 121 hintmask 00000000
          hintmask 11101100
          432 -68 callgsubr
          hintmask 11110010
          -145 -751 -102 callgsubr
        </CharString>
        <CharString name="ocircumflex">
          -51 -46 callsubr
          81 144 hstem
          56 121 220 -42 callsubr
          endchar
        </CharString>
        <CharString name="odieresis">
          -51 -46 callsubr
          115 97 -40 callgsubr
          -40 105 91 105 -41 121 hintmask 00000000
          hintmask 11101100
          137 633 -85 callsubr
          hintmask 11110010
          -46 -738 -102 callgsubr
        </CharString>
        <CharString name="oe">
          277 -8 100 123 81 122 100 96 callgsubr
          220 123 127 callgsubr
          844 254 rmoveto
          181 -8 83 -206 -82 -54 -14 -30 -35 vhcurveto
          31 -33 -54 13 -85 hhcurveto
          -17 callsubr
          84 54 12 31 33 hvcurveto
          -30 37 56 -13 89 101 callgsubr
          -142 -6 18 106 hvcurveto
          324 hlineto
          -216 204 rmoveto
          78 23 -14 -109 hvcurveto
          -209 hlineto
          101 1 12 22 95 hhcurveto
          -341 -327 rmoveto
          -99 callsubr
          endchar
        </CharString>
        <CharString name="ogonek">
          -460 -196 72 hstem
          -1 166 vstem
          165 -193 rmoveto
          17 callgsubr
        </CharString>
        <CharString name="ograve">
          -51 -46 callsubr
          82 143 23 callsubr
          255 600 -91 callsubr
          163 -746 -102 callgsubr
        </CharString>
        <CharString name="ohorn">
          -51 -46 callsubr
          -56 48 38 callsubr
          -6 81 hintmask 00000000
          hintmask 10110100
          512 157 callsubr
          -53 hlineto
          hintmask 11011000
          -48 callsubr
          hintmask 10111000
          107 callsubr
          hintmask 10110100
          37 callgsubr
          hintmask 11011000
          -75 callsubr
          endchar
        </CharString>
        <CharString name="ohungarumlaut">
          -51 -46 callsubr
          90 127 23 callsubr
          159 608 -80 callgsubr
          -63 -621 -102 callgsubr
        </CharString>
        <CharString name="omacron">
          -51 -46 callsubr
          118 106 -40 callgsubr
          -20 259 -19 121 hintmask 00000000
          hintmask 11101000
          157 636 -49 callsubr
          hintmask 11110100
          130 -750 -102 callgsubr
        </CharString>
        <CharString name="one">
          -239 136 callsubr
          164 -20 callsubr
          164 hmoveto
          66 callgsubr
          -88 hlineto
          -177 -91 rlineto
          -111 vlineto
          137 60 rlineto
          endchar
        </CharString>
        <CharString name="one.dnom">
          -396 21 -21 hstem
          94 81 vstem
          94 hmoveto
          105 callgsubr
        </CharString>
        <CharString name="one.numr">
          -396 308 378 hstem
          94 81 vstem
          94 308 rmoveto
          105 callgsubr
        </CharString>
        <CharString name="one.tnum">
          35 0 108 580 -20 hstem
          293 -20 callsubr
          108 hmoveto
          483 108 -170 580 -87 hlineto
          -221 -101 rlineto
          -108 vlineto
          180 68 rlineto
          -439 -185 vlineto
          endchar
        </CharString>
        <CharString name="oneeighth">
          186 107 callgsubr
          104 60 305 -20 hstemhm
          111 83 247 37 callsubr
          hintmask 1011111001000000
          -22 callsubr
          hintmask 0111111001000000
          -33 -593 rmoveto
          16 callgsubr
          hintmask 1011111001000000
          71 -692 -17 callgsubr
          hintmask 1011110110000000
          -59 callgsubr
          hintmask 1011111001000000
          -5 callsubr
          hintmask 1011110110000000
          -49 callgsubr
          hintmask 1011111001000000
          -51 callgsubr
        </CharString>
        <CharString name="onehalf">
          167 0 74 233 73 308 -20 hstem
          111 83 269 81 109 84 vstem
          -22 callsubr
          416 95 rmoveto
          -449 -688 rlineto
          84 hlineto
          449 688 rlineto
          -67 -598 rmoveto
          -68 callsubr
          74 -193 vlineto
          endchar
        </CharString>
        <CharString name="onequarter">
          105 0 146 -72 72 542 -20 hstemhm
          111 83 361 83 hintmask 10111000
          -22 callsubr
          -33 -593 rmoveto
          16 callgsubr
          28 -688 rmoveto
          83 hlineto
          hintmask 01111000
          74 50 vlineto
          hintmask 10111000
          92 callgsubr
          hintmask 01111000
          143 callsubr
        </CharString>
        <CharString name="ordfeminine">
          -212 313 69 98 58 82 76 hstem
          39 87 144 91 vstem
          149 313 rmoveto
          40 48 5 41 29 hvcurveto
          5 hlineto
          5 -42 rlineto
          85 229 hlineto
          101 -16 49 -145 -46 -53 -5 -7 -40 vhcurveto
          -71 vlineto
          4 38 44 3 22 hhcurveto
          96 9 -5 -65 hvcurveto
          -16 vlineto
          2 -39 -56 2 -23 hhcurveto
          -91 -22 -31 -83 -80 34 -31 76 hvcurveto
          43 69 rmoveto
          -57 -9 9 41 39 8 9 42 hvcurveto
          94 -14 hlineto
          -28 -3 -18 -6 -13 vhcurveto
          -21 -11 -22 -4 -36 hhcurveto
          endchar
        </CharString>
        <CharString name="ordmasculine">
          -197 313 75 233 75 hstem
          45 92 154 92 vstem
          214 313 rmoveto
          160 9 54 137 137 -9 55 -160 -160 -9 -55 138 callgsubr
          9 -54 160 hvcurveto
          75 vmoveto
          -77 0 13 103 102 0 15 77 77 0 -15 -102 -103 0 -13 -77 hvcurveto
          endchar
        </CharString>
        <CharString name="orn.001">
          -288 223 240 hstem
          48 241 vstem
          289 341 rmoveto
          105 -6 17 -117 -112 -6 -17 -105 -102 6 -16 112 117 6 16 102 vhcurveto
          endchar
        </CharString>
        <CharString name="orn.002">
          -76 234 60 100 60 hstem
          44 126 callsubr
          100 60 vstem
          210 -27 callsubr
          63 101 -16 callsubr
          121 87 72 callsubr
          -29 -21 22 28 29 21 21 29 28 22 -21 -29 -28 -22 -22 -28 hvcurveto
          endchar
        </CharString>
        <CharString name="orn.003">
          -210 46 596 hstem
          45 126 callsubr
          vstem
          211 -27 callsubr
          63 101 -16 callsubr
          63 101 26 callsubr
          endchar
        </CharString>
        <CharString name="orn.007">
          -288 222 241 hstem
          48 241 vstem
          168 222 rmoveto
          67 54 53 67 67 -54 54 -67 -67 -53 -54 -67 -67 53 -53 67 hvcurveto
          endchar
        </CharString>
        <CharString name="orn.010">
          169 89 callsubr
          45 704 vstem
          397 hmoveto
          352 348 hlineto
          122 callsubr
          -207 -145 -143 -205 -204 145 -144 207 vhcurveto
          endchar
        </CharString>
        <CharString name="orn.015">
          -60 90 callgsubr
          -1 187 115 callgsubr
          187 60 -187 hlineto
          187 -272 rmoveto
          213 212 rlineto
          167 60 -192 hlineto
          -188 -187 rlineto
          endchar
        </CharString>
        <CharString name="orn.016">
          -60 90 callgsubr
          -1 567 115 callgsubr
          567 60 -567 hlineto
          endchar
        </CharString>
        <CharString name="orn.017">
          -565 136 callsubr
          0 60 vstem
          0 vmoveto
          60 688 -60 hlineto
          endchar
        </CharString>
        <CharString name="orn.018">
          167 46 596 hstem
          45 126 callsubr
          102 126 callsubr
          vstem
          211 -27 callsubr
          370 hmoveto
          99 62 67 110 126 vvcurveto
          125 -67 111 -99 62 vhcurveto
          -32 -51 rlineto
          82 -51 56 -92 -104 vvcurveto
          -105 -55 -91 -83 -52 vhcurveto
          -275 51 -16 callsubr
          244 hmoveto
          65 41 44 73 83 vvcurveto
          83 -44 73 -66 41 vhcurveto
          -32 -51 rlineto
          49 -31 33 -54 -61 vvcurveto
          -62 -33 -53 -48 -31 vhcurveto
          -149 50 26 callsubr
          118 hmoveto
          33 callgsubr
        </CharString>
        <CharString name="orn.019">
          -76 234 60 100 60 hstem
          44 60 100 126 callsubr
          vstem
          338 -18 callgsubr
          -89 36 72 callsubr
          -28 -22 22 28 29 22 21 28 29 21 -21 -29 -28 -21 -22 -29 hvcurveto
          endchar
        </CharString>
        <CharString name="orn.020">
          -210 46 596 hstem
          70 126 callsubr
          vstem
          204 -18 callgsubr
          -31 50 rmoveto
          33 callgsubr
        </CharString>
        <CharString name="orn.021">
          128 696 -20 hstem
          45 663 vstem
          376 -116 rmoveto
          0 332 172 308 vvcurveto
          188 -149 144 -183 -183 -148 -144 -188 -308 331 -172 0 vhcurveto
          endchar
        </CharString>
        <CharString name="orn.022">
          -236 220 246 hstem
          48 301 vstem
          171 220 rmoveto
          98 80 83 40 40 -80 83 -98 -81 -42 -55 -68 -68 42 -55 81 hvcurveto
          endchar
        </CharString>
        <CharString name="oslash">
          156 callgsubr
          38 callsubr
          hintmask 00000000
          hintmask 10011100
          468 481 rmoveto
          50 84 rlineto
          -92 hlineto
          -32 -54 rlineto
          hintmask 01101100
          40 callsubr
          hintmask 10101100
          -6 28 36 -2 43 hhcurveto
          218 13 58 206 hvcurveto
          hintmask 10011100
          119 -4 69 -46 37 vhcurveto
          hintmask 10101100
          -14 callgsubr
        </CharString>
        <CharString name="oslashacute">
          156 callgsubr
          109 27 callsubr
          hintmask 10101110
          453 738 -66 callgsubr
          hintmask 10011110
          146 -119 rmoveto
          50 84 rlineto
          -92 hlineto
          -32 -54 rlineto
          hintmask 01101110
          40 callsubr
          hintmask 10101110
          -6 28 36 -2 43 hhcurveto
          218 13 58 206 hvcurveto
          hintmask 10011110
          119 -4 69 -46 37 vhcurveto
          hintmask 10101110
          -14 callgsubr
        </CharString>
        <CharString name="otilde">
          -51 -46 callsubr
          95 93 callgsubr
          -78 65 233 121 -106 126 callgsubr
          hintmask 1101010010000000
          476 743 rmoveto
          -64 hlineto
          hintmask 1110010010000000
          -93 callsubr
          hintmask 1100101100000000
          -100 callsubr
          hintmask 1110010010000000
          -10 37 41 -11 40 hhcurveto
          hintmask 1101010010000000
          78 5 45 85 hvcurveto
          hintmask 1110010100000000
          -189 -751 -102 callgsubr
        </CharString>
        <CharString name="p">
          -40 -8 107 -42 42 313 98 -98 106 -19 callsubr
          213 121 hintmask 10011100
          75 -199 rmoveto
          120 hlineto
          hintmask 01011100
          256 7 vlineto
          hintmask 10011100
          76 callsubr
          -63 -13 -60 -31 hvcurveto
          -7 hlineto
          hintmask 10101100
          -4 65 116 callsubr
          226 -411 rmoveto
          -51 -27 13 28 -14 hvcurveto
          -12 26 -2 37 52 vvcurveto
          hintmask 10011100
          51 2 39 13 26 vhcurveto
          27 14 26 14 51 hhcurveto
          96 11 -16 -141 hvcurveto
          hintmask 10101100
          -141 -11 -15 -96 vhcurveto
          endchar
        </CharString>
        <CharString name="paragraph">
          -12 688 -20 hstem
          300 84 66 82 vstem
          300 -144 rmoveto
          84 832 -84 hlineto
          -233 -11 -31 -203 -203 11 -29 233 hvcurveto
          150 -366 rmoveto
          82 832 -82 hlineto
          endchar
        </CharString>
        <CharString name="parenleft">
          -293 -150 893 hstem
          72 115 vstem
          228 -150 rmoveto
          84 hlineto
          -82 107 -43 48 292 vvcurveto
          290 43 49 82 107 vhcurveto
          -84 hlineto
          -116 -126 -40 -58 -262 vvcurveto
          -263 40 -52 116 -132 vhcurveto
          endchar
        </CharString>
        <CharString name="parenleft.ss02">
          48 callsubr
          -204 145 -144 207 hvcurveto
          endchar
        </CharString>
        <CharString name="parenright">
          -293 -150 893 hstem
          145 115 vstem
          20 -150 rmoveto
          84 hlineto
          116 132 40 52 263 vvcurveto
          262 -40 58 -116 126 vhcurveto
          -84 hlineto
          82 -107 43 -49 -290 vvcurveto
          -292 -43 -48 -82 -107 vhcurveto
          endchar
        </CharString>
        <CharString name="parenright.ss02">
          -228 89 callsubr
          0 352 vstem
          0 vmoveto
          207 145 144 204 122 callsubr
          hvcurveto
          endchar
        </CharString>
        <CharString name="partialdiff">
          -50 -8 99 327 99 77 callgsubr
          74 -7 63 -12 54 hvcurveto
          -29 135 -63 84 -78 67 rrcurveto
          -130 -4 hlineto
          71 -60 60 -71 37 -106 -3 -3 rcurveline
          13 -32 -46 5 -45 hhcurveto
          -171 -14 -86 -177 19 callgsubr
        </CharString>
        <CharString name="percent">
          227 -8 64 -35 -21 311 64 256 65 -8 -20 hstemhm
          53 77 137 77 164 78 136 78 hintmask 1011011110000000
          199 311 rmoveto
          140 5 42 150 149 -5 98 callsubr
          hintmask 0110111110000000
          -39 -311 rmoveto
          83 hlineto
          449 688 rlineto
          -83 hlineto
          -410 -313 rmoveto
          -68 -1 2 126 hvcurveto
          hintmask 1011011110000000
          125 1 3 68 67 1 -3 -125 vhcurveto
          hintmask 0110111110000000
          -126 -1 -2 -67 vhcurveto
          hintmask 1011011110000000
          455 -383 rmoveto
          140 6 42 150 149 -6 98 callsubr
          64 vmoveto
          -67 -1 2 126 125 1 3 67 68 0 -3 -125 -126 0 -2 -68 hvcurveto
          endchar
        </CharString>
        <CharString name="period">
          -363 0 81 callgsubr
          64 hmoveto
          134 125 -134 hlineto
          endchar
        </CharString>
        <CharString name="periodcentered">
          -363 237 81 callgsubr
          64 237 -92 callgsubr
        </CharString>
        <CharString name="perthousand">
          369 -8 58 -29 -21 270 58 32 58 220 58 -8 -20 hstemhm
          53 69 116 70 82 70 115 70 42 69 116 70 hintmask 1011101111110000
          180 360 rmoveto
          2 callgsubr
          hintmask 0101011100000000
          -104 -360 rmoveto
          85 hlineto
          461 688 rlineto
          -85 hlineto
          -357 -270 rmoveto
          -56 -2 2 108 hvcurveto
          hintmask 0000101100000000
          154 callsubr
          vhcurveto
          hintmask 0101011100000000
          -108 -2 -2 -56 vhcurveto
          hintmask 1010000011110000
          337 -426 rmoveto
          2 callgsubr
          297 hmoveto
          2 callgsubr
          -297 58 rmoveto
          -55 -2 2 108 108 2 2 55 57 1 -2 -108 -108 -1 -2 -57 hvcurveto
          297 hmoveto
          -56 -2 2 108 154 callsubr
          -108 -2 -2 -56 hvcurveto
          endchar
        </CharString>
        <CharString name="pi">
          -37 82 callgsubr
          161 callsubr
          198 119 vstem
          393 hmoveto
          119 510 -437 -510 120 410 198 hlineto
          endchar
        </CharString>
        <CharString name="plus">
          -85 205 95 145 callsubr
          52 74 callgsubr
          endchar
        </CharString>
        <CharString name="plusminus">
          -85 0 95 242 95 145 callsubr
          184 74 callgsubr
          -152 -337 rmoveto
          69 callsubr
          endchar
        </CharString>
        <CharString name="product">
          101 580 108 hstem
          87 127 296 -20 callsubr
          510 -189 rmoveto
          128 877 -551 -877 127 769 296 hlineto
          endchar
        </CharString>
        <CharString name="q">
          -39 -8 107 313 98 -98 106 125 callsubr
          hintmask 10111000
          390 -199 rmoveto
          120 hlineto
          hintmask 11011000
          709 -111 vlineto
          hintmask 10111000
          -4 -65 rlineto
          -7 hlineto
          60 -31 -62 13 -61 hhcurveto
          -129 -49 -62 -202 -202 47 -60 127 68 54 13 52 32 hvcurveto
          6 hlineto
          -106 42 rmoveto
          -96 -11 15 141 141 11 16 96 46 26 -11 -23 15 hvcurveto
          17 -26 2 -41 -56 vvcurveto
          -50 -2 -36 -11 -25 vhcurveto
          -31 -14 -26 -14 -53 hhcurveto
          endchar
        </CharString>
        <CharString name="question">
          -55 callsubr
        </CharString>
        <CharString name="question.case">
          -55 callsubr
        </CharString>
        <CharString name="questiondown">
          -177 -186 108 463 125 hstemhm
          57 139 callgsubr
          235 385 -34 callgsubr
        </CharString>
        <CharString name="questiondown.case">
          -116 -8 108 463 125 hstemhm
          67 139 callgsubr
          245 563 -34 callgsubr
        </CharString>
        <CharString name="quotedbl">
          -212 435 253 hstem
          65 112 59 112 vstem
          103 callsubr
          185 -188 rmoveto
          84 hlineto
          14 17 callsubr
          endchar
        </CharString>
        <CharString name="quotedblbase">
          -176 -130 86 callsubr
          65 -20 callsubr
          51 -79 -1 callsubr
        </CharString>
        <CharString name="quotedblleft">
          -176 439 119 79 51 hstem
          64 128 65 -20 callsubr
          64 439 11 callsubr
          193 -84 11 callsubr
          endchar
        </CharString>
        <CharString name="quotedblright">
          -176 439 86 callsubr
          65 -20 callsubr
          51 490 -1 callsubr
        </CharString>
        <CharString name="quoteleft">
          -369 439 119 79 51 hstem
          64 -20 callsubr
          64 439 11 callsubr
          endchar
        </CharString>
        <CharString name="quoteright">
          -369 439 86 callsubr
          vstem
          51 490 57 callsubr
          endchar
        </CharString>
        <CharString name="quotesinglbase">
          -369 -130 86 callsubr
          vstem
          51 -79 57 callsubr
          endchar
        </CharString>
        <CharString name="quotesingle">
          112 callgsubr
          103 callsubr
          endchar
        </CharString>
        <CharString name="r">
          28 callgsubr
          -19 callsubr
          hintmask 10110000
          147 callsubr
          hintmask 11010000
          -50 callgsubr
          hintmask 10110000
          70 callsubr
          endchar
        </CharString>
        <CharString name="racute">
          28 callgsubr
          110 143 -19 callsubr
          hintmask 10111000
          141 600 -101 callgsubr
          -66 -605 rmoveto
          120 209 hlineto
          hintmask 11011000
          -50 callgsubr
          hintmask 10111000
          70 callsubr
          endchar
        </CharString>
        <CharString name="radical">
          32 -106 876 hstem
          28 605 vstem
          277 -106 rmoveto
          129 hlineto
          227 876 rlineto
          -106 hlineto
          -193 -754 -161 325 -145 -66 24 -63 54 24 rlineto
          endchar
        </CharString>
        <CharString name="rcaron">
          28 callgsubr
          109 144 -19 callsubr
          hintmask 10111000
          134 599 -98 callsubr
          38 -736 rmoveto
          120 209 hlineto
          hintmask 11011000
          -50 callgsubr
          hintmask 10111000
          70 callsubr
          endchar
        </CharString>
        <CharString name="rcommaaccent">
          -237 -16 callgsubr
          83 145 callgsubr
          -19 callsubr
          -118 128 hintmask 11101100
          147 callsubr
          hintmask 11110100
          -50 callgsubr
          hintmask 11101100
          70 callsubr
          hintmask 11101010
          -11 -748 -87 callgsubr
        </CharString>
        <CharString name="registered">
          115 -8 52 250 61 110 63 115 53 hstem
          81 53 97 73 139 74 88 54 vstem
          369 696 rmoveto
          133 callsubr
          132 callsubr
          hvcurveto
          -652 47 callsubr
          148 368 rmoveto
          67 -11 49 -107 vhcurveto
          -168 -370 73 136 61 hlineto
          9 8 0 1 9 hvcurveto
          54 -137 rlineto
          79 hlineto
          -62 147 rlineto
          48 17 7 47 43 vvcurveto
          -149 -57 rmoveto
          -64 110 70 hlineto
          61 8 -10 -44 -40 -4 -16 -71 hvcurveto
          endchar
        </CharString>
        <CharString name="rightCloseDialog">
          -2 90 callgsubr
          -1 187 378 60 vstem
          624 688 rmoveto
          -625 -60 565 -568 -190 hlineto
          -188 -187 rlineto
          -85 vlineto
          213 212 rlineto
          165 hlineto
          60 hlineto
          -438 60 rmoveto
          -187 -60 187 hlineto
          endchar
        </CharString>
        <CharString name="rightOpenDialog">
          -1 90 callgsubr
          565 60 vstem
          625 688 rmoveto
          -626 -60 566 -568 -566 -60 566 hlineto
          60 hlineto
          endchar
        </CharString>
        <CharString name="ring">
          -306 596 152 callsubr
          hstem
          20 128 callsubr
          vstem
          158 596 -83 callgsubr
          endchar
        </CharString>
        <CharString name="s">
          -127 -46 callsubr
          24 callgsubr
          257 -8 rmoveto
          -96 callgsubr
          -8 53 81 -6 60 hhcurveto
          endchar
        </CharString>
        <CharString name="sacute">
          -127 -46 callsubr
          82 143 24 callgsubr
          196 600 -101 callgsubr
          61 -613 rmoveto
          -96 callgsubr
          -8 53 81 -6 60 hhcurveto
          endchar
        </CharString>
        <CharString name="sacute.loclPLK">
          -127 -46 callsubr
          82 143 24 callgsubr
          196 600 -75 callgsubr
          61 -613 rmoveto
          -96 callgsubr
          -8 53 81 -6 60 hhcurveto
          endchar
        </CharString>
        <CharString name="scaron">
          -127 -46 callsubr
          81 144 24 callgsubr
          193 599 -98 callsubr
          161 -744 rmoveto
          -96 callgsubr
          -8 53 81 -6 60 hhcurveto
          endchar
        </CharString>
        <CharString name="scedilla">
          -127 -7 99 326 100 24 callgsubr
          450 150 rmoveto
          71 callgsubr
          vhcurveto
          -133 16 rlineto
          -44 5 -5 6 40 vvcurveto
          49 28 4 74 46 65 -4 -6 47 vhcurveto
          94 vlineto
          9 -41 -71 7 -58 hhcurveto
          -121 -84 -17 -136 -88 18 -50 97 -12 hvcurveto
          119 -15 rlineto
          47 -6 8 -2 -45 vvcurveto
          -41 -8 -14 -91 -55 -82 5 4 -37 vhcurveto
          -95 vlineto
          38 -6 53 -4 49 -3 -66 -178 rcurveline
          -5 115 vlineto
          36 183 rlineto
          101 4 61 28 125 vvcurveto
          endchar
        </CharString>
        <CharString name="scircumflex">
          -127 -46 callsubr
          81 144 24 callgsubr
          92 599 -107 callgsubr
          165 -614 rmoveto
          -96 callgsubr
          -8 53 81 -6 60 hhcurveto
          endchar
        </CharString>
        <CharString name="scommaaccent">
          -127 -16 callgsubr
          54 -25 callgsubr
          hstemhm
          47 115 29 128 17 114 hintmask 11110100
          257 -8 rmoveto
          hintmask 11111110
          -96 callgsubr
          hintmask 11110100
          -8 53 81 -6 60 hhcurveto
          -79 -230 -87 callgsubr
        </CharString>
        <CharString name="second">
          -205 375 313 hstemhm
          63.5 118 60 118 161 callgsubr
          53 375 60 callgsubr
          157 -313 60 callgsubr
          endchar
        </CharString>
        <CharString name="section">
          68 -171 107 652 108 hstemhm
          50 117 -28 122 170 122 -27 116 hintmask 11011000
          328 -171 rmoveto
          135 90 29 131 32 -1 31 -11 24 hvcurveto
          hintmask 11010100
          86 14 15 73 85 vvcurveto
          112 -42 25 -81 24 vhcurveto
          -209 61 rlineto
          -42 12 -7 5 46 vvcurveto
          51 25 4 137 64 64 -5 0 vhcurveto
          99 vlineto
          0 -74 14 -112 -135 -91 -30 -131 -33 0 -31 12 -24 vhcurveto
          hintmask 11101000
          -86 -14 -15 -72 -86 vvcurveto
          -112 42 -26 81 -23 vhcurveto
          209 -60 rlineto
          42 -12 7 -6 -44 vvcurveto
          -52 -26 -4 -136 -72 -56 6 0 vhcurveto
          -99 vlineto
          hintmask 11011000
          0 74 -14 113 vhcurveto
          hintmask 11100100
          154 319 rmoveto
          -14 -21 6 4 -16 hvcurveto
          -210 60 rlineto
          -44 12 -10 11 55 vvcurveto
          55 15 24 29 14 19 -7 -4 17 vhcurveto
          211 -59 rlineto
          43 -12 11 -11 -55 vvcurveto
          -55 -16 -24 -28 vhcurveto
          endchar
        </CharString>
        <CharString name="semicolon">
          -363 -136 54 82 64 callsubr
          -14 -592 50 callsubr
        </CharString>
        <CharString name="seven">
          -57 21 -21 579 109 hstem
          37 489 vstem
          120 hmoveto
          142 hlineto
          264 589 rlineto
          99 -489 -109 350 vlineto
          endchar
        </CharString>
        <CharString name="seven.dnom">
          -297 21 -21 315 63 hstem
          23 279 vstem
          68 hmoveto
          99 callsubr
        </CharString>
        <CharString name="seven.numr">
          -297 623 63 hstem
          23 279 vstem
          68 308 rmoveto
          99 callsubr
        </CharString>
        <CharString name="seven.tnum">
          35 21 -21 579 109 hstem
          65 528 vstem
          168 hmoveto
          141 hlineto
          284 589 rlineto
          99 -528 -109 390 vlineto
          endchar
        </CharString>
        <CharString name="seveneighths">
          204 107 callgsubr
          104 60 240 63 hstemhm
          475 37 callsubr
          hintmask 0000000000000000
          hintmask 0111110010000000
          93 hmoveto
          16 callgsubr
          -474 -380 -24 callgsubr
          146 321 rlineto
          57 -279 -63 194 vlineto
          hintmask 1011110010000000
          415 -627 -17 callgsubr
          hintmask 1011101100000000
          -59 callgsubr
          hintmask 1011110010000000
          -5 callsubr
          hintmask 1011101100000000
          -49 callgsubr
          hintmask 1011110010000000
          -51 callgsubr
        </CharString>
        <CharString name="six">
          39 130 callsubr
          65 130 282 126 vstem
          344 8 callsubr
          -146 -74 -25 -87 -36 hvcurveto
          -23 -54 -7 -79 -112 vvcurveto
          -129 8 -82 25 -51 vhcurveto
          -74 37 73 -11 136 35 callsubr
        </CharString>
        <CharString name="six.dnom">
          -247 -4 61 116 61 86 63 hstem
          40 81 149 77 vstem
          199 -4 rmoveto
          122 26 32 96 96 -41 14 -86 -11 callgsubr
          38 6 12 67 62 12 -4 -55 -54 -14 -3 -60 hvcurveto
          endchar
        </CharString>
        <CharString name="six.numr">
          -247 304 61 116 35 -35 61 -26 -20 132 63 hstemhm
          40 81 149 77 hintmask 10011110
          199 304 rmoveto
          122 26 32 96 hvcurveto
          hintmask 10101110
          96 -41 14 -86 vhcurveto
          hintmask 10011110
          -11 callgsubr
          hvcurveto
          hintmask 11001110
          38 6 12 67 62 12 -4 -55 vhcurveto
          hintmask 10011110
          -54 -14 -3 -60 vhcurveto
          endchar
        </CharString>
        <CharString name="six.ss01">
          27 -8 107 217 106 259 7 hstem
          50 130 296 125 vstem
          326 -8 rmoveto
          228 47 76 140 136 -32 78 -184 -74 -45 -7 -18 -35 hvcurveto
          -4 2 69 137 131 103 58 42 rlinecurve
          7 -155 vlineto
          -79 -55 -201 -189 -214 vvcurveto
          -162 47 -76 229 vhcurveto
          107 vmoveto
          -109 -37 6 113 79 35 19 111 116 34 -4 -105 -91 -30 -17 -120 hvcurveto
          endchar
        </CharString>
        <CharString name="six.tnum">
          35 130 callsubr
          67 130 282 126 vstem
          346 8 callsubr
          -125 -73 -19 -60 -41 hvcurveto
          -36 -54 -11 -87 -137 vvcurveto
          -117 7 -78 20 -52 vhcurveto
          -88 34 73 -12 145 35 callsubr
        </CharString>
        <CharString name="slash">
          158 callgsubr
          -7 -55 rmoveto
          106 hlineto
          291 798 rlineto
          -107 hlineto
          endchar
        </CharString>
        <CharString name="space">
          -381 endchar
        </CharString>
        <CharString name="sterling">
          -28 0 108 193 106 181 108 hstem
          122 129 vstem
          251 108 rmoveto
          193 215 106 -215 vlineto
          91 8 46 33 22 vhcurveto
          18 26 40 4 63 hhcurveto
          26 52 -4 -5 42 hvcurveto
          101 vlineto
          9 -36 -65 7 -54 hhcurveto
          -212 -51 -70 -219 hvcurveto
          -75 -106 74 -193 -74 -108 505 108 hlineto
          endchar
        </CharString>
        <CharString name="summation">
          79 -189 108 661 108 hstem
          76 552 vstem
          76 -189 rmoveto
          552 108 -391 hlineto
          303 330 -303 331 rlineto
          391 108 -552 -104 hlineto
          306 -335 -306 -334 rlineto
          endchar
        </CharString>
        <CharString name="t">
          -242 82 callgsubr
          hstem
          122 120 vstem
          122 hmoveto
          120 410 0 callsubr
          hlineto
          endchar
        </CharString>
        <CharString name="tbar">
          -242 21 -21 185 98 127 100 hstem
          122 120 vstem
          362 283 rmoveto
          -120 127 0 callsubr
          -127 -100 -98 100 -185 120 185 120 hlineto
          endchar
        </CharString>
        <CharString name="tcaron">
          -242 82 callgsubr
          -75 75 178 -20 hstemhm
          122 120 167 112 hintmask 00000000
          hintmask 10111100
          393 435 rmoveto
          84 hlineto
          44 17 callsubr
          -287 -623 rmoveto
          120 hlineto
          hintmask 11011100
          410 0 callsubr
          vlineto
          endchar
        </CharString>
        <CharString name="thorn">
          -40 -8 107 -42 42 313 106 154 callgsubr
          75 -189 rmoveto
          120 hlineto
          hintmask 01111000
          246 7 vlineto
          hintmask 10111000
          76 callsubr
          -58 -10 -60 -31 hvcurveto
          -7 295 -120 hlineto
          226 -644 rmoveto
          -53 -27 14 31 -13 hvcurveto
          -11 25 -2 36 50 vvcurveto
          55 2 40 16 26 vhcurveto
          24 15 26 12 47 hhcurveto
          96 11 -16 -141 -141 -11 -15 -96 hvcurveto
          endchar
        </CharString>
        <CharString name="three">
          -19 131 callgsubr
          403 130 -123 130 hintmask 11101000
          268 -44 callsubr
        </CharString>
        <CharString name="three.dnom">
          -275 -4 62 103 61 98 63 hstemhm
          225 81 -78 82 hintmask 11101000
          155 -4 -38 callsubr
        </CharString>
        <CharString name="three.numr">
          -275 304 62 103 61 98 63 hstemhm
          225 81 -78 82 hintmask 11101000
          155 304 -38 callsubr
        </CharString>
        <CharString name="three.tnum">
          35 131 callgsubr
          427 130 -123 130 hintmask 11101000
          292 -44 callsubr
        </CharString>
        <CharString name="threeeighths">
          271 107 callgsubr
          85 62 -43 60 86 61 98 63 -3 -20 hstemhm
          225 81 -78 82 232 37 callsubr
          hintmask 0000000000000000
          hintmask 1011011001100100
          155 304 rmoveto
          127 28 37 68 62 -26 20 -45 9 hvcurveto
          2 vlineto
          hintmask 1010111010100100
          44 10 23 24 56 vvcurveto
          69 -36 30 -114 -36 -52 -5 -5 -33 vhcurveto
          -59 vlineto
          4 32 43 2 31 hhcurveto
          64 20 -4 -44 -42 -21 -8 -36 hvcurveto
          -70 -61 hlineto
          hintmask 1011011001100100
          70 hlineto
          45 15 -10 -43 -46 -25 -4 -57 -27 -47 3 3 -39 hvcurveto
          -58 vlineto
          -6 35 51 -4 36 hhcurveto
          hintmask 0110110101100100
          5 -304 rmoveto
          16 callgsubr
          hintmask 1010111001100100
          90 -692 -17 callgsubr
          hintmask 1010111001011000
          -59 callgsubr
          hintmask 1010111001100100
          -5 callsubr
          hintmask 1010111001011000
          -49 callgsubr
          hintmask 1010111001100100
          -51 callgsubr
        </CharString>
        <CharString name="threequarters">
          177 0 146 -72 72 161 73 90 66 87 73 -8 -20 hstemhm
          105 155 -34 85 -81 85 312 83 hintmask 1011100011000000
          42 387 rmoveto
          51 callsubr
          hintmask 1011101001000000
          137 callsubr
          4 vlineto
          hintmask 1011100101000000
          -52 callsubr
          hintmask 1011101001000000
          -73 -66 hlineto
          hintmask 1011100011000000
          11 callgsubr
          109 -387 rmoveto
          84 hlineto
          hintmask 1011010011000000
          449 688 rlineto
          -84 hlineto
          27 -688 rmoveto
          83 hlineto
          hintmask 0111100011000000
          74 50 vlineto
          hintmask 1011100011000000
          92 callgsubr
          hintmask 0111100011000000
          143 callsubr
        </CharString>
        <CharString name="tilde">
          -208 614 4 callgsubr
          19 69 callgsubr
          hintmask 01011000
          396 744 rmoveto
          -64 hlineto
          hintmask 10011000
          -93 callsubr
          hintmask 00111000
          -100 callsubr
          hintmask 10011000
          -10 37 41 -11 40 hhcurveto
          hintmask 01011000
          78 5 45 85 hvcurveto
          endchar
        </CharString>
        <CharString name="tildecomb">
          614 4 callgsubr
          -398 69 callgsubr
          hintmask 01011000
          -21 744 rmoveto
          -64 hlineto
          hintmask 10011000
          -93 callsubr
          hintmask 00111000
          -100 callsubr
          hintmask 10011000
          -10 37 41 -11 40 hhcurveto
          hintmask 01011000
          78 5 45 85 hvcurveto
          endchar
        </CharString>
        <CharString name="tildecomb.case">
          759 62 callgsubr
          -398 69 callgsubr
          hintmask 10110000
          -21 -7 callsubr
          hintmask 01110000
          -100 callsubr
          hintmask 10110000
          -90 callsubr
          endchar
        </CharString>
        <CharString name="trademark">
          149 386 103 139 60 hstem
          147 66 142 61 219 62 vstem
          147 386 rmoveto
          66 242 95 60 -255 -60 94 hlineto
          208 -242 rmoveto
          61 209 4 hlineto
          85 -209 rlineto
          41 hlineto
          85 209 rlineto
          4 -209 62 302 -85 hlineto
          -82 -199 rlineto
          -6 hlineto
          -84 199 rlineto
          -85 hlineto
          endchar
        </CharString>
        <CharString name="two">
          -14 0 109 479 108 hstem
          61 124 235 -20 callsubr
          185 140 rmoveto
          37 3 20 10 14 vhcurveto
          9 12 13 7 21 -28 callsubr
        </CharString>
        <CharString name="two.dnom">
          -271 0 120 callgsubr
          78 -29 callgsubr
        </CharString>
        <CharString name="two.numr">
          -271 308 120 callgsubr
          386 -29 callgsubr
        </CharString>
        <CharString name="two.tnum">
          35 0 109 479 108 hstem
          86 124 235 -20 callsubr
          210 140 rmoveto
          38 3 20 11 14 vhcurveto
          8 11 14 7 20 -28 callsubr
        </CharString>
        <CharString name="u">
          -62 callgsubr
          -50 callsubr
          hintmask 00000000
          hintmask 01111000
          408 hmoveto
          111 510 -120 -263 hlineto
          hintmask 10111000
          -102 callsubr
          endchar
        </CharString>
        <CharString name="uacute">
          -31 -8 107 -99 99 411 121 callsubr
          hintmask 10111100
          255 600 -101 callgsubr
          hintmask 01111100
          153 -605 -70 callsubr
          hintmask 10111100
          -102 callsubr
          endchar
        </CharString>
        <CharString name="ubreve">
          -62 callgsubr
          106 71 -19 callsubr
          -44 -15 callgsubr
          -43 95 callgsubr
          hintmask 10110110
          442 -68 callgsubr
          hintmask 01111001
          -34 -743 -70 callsubr
          hintmask 10111001
          -102 callsubr
          endchar
        </CharString>
        <CharString name="ucircumflex">
          -62 callgsubr
          109 144 -50 callsubr
          hintmask 10111100
          140 599 -107 callgsubr
          hintmask 01111100
          268 -606 -70 callsubr
          hintmask 10111100
          -102 callsubr
          endchar
        </CharString>
        <CharString name="udieresis">
          -62 callgsubr
          143 97 142 callgsubr
          hintmask 00000000
          hintmask 10110110
          146 633 -85 callsubr
          hintmask 01111001
          58 callsubr
          hintmask 10111001
          -102 callsubr
          endchar
        </CharString>
        <CharString name="ugrave">
          -31 -8 107 -99 99 411 121 callsubr
          hintmask 10111100
          266 600 -91 callsubr
          hintmask 01111100
          273 -738 -70 callsubr
          hintmask 10111100
          -102 callsubr
          endchar
        </CharString>
        <CharString name="uhorn">
          156 callsubr
          -50 callsubr
          13 81 hintmask 00000000
          hintmask 10011110
          129 callsubr
          hintmask 10011100
          -72 -263 hlineto
          -102 callsubr
          hintmask 01101100
          39 callgsubr
          hintmask 10011110
          39 callsubr
          endchar
        </CharString>
        <CharString name="uhungarumlaut">
          -62 callgsubr
          118 127 -50 callsubr
          hintmask 10111100
          169 608 -80 callgsubr
          hintmask 01111100
          48 -613 -70 callsubr
          hintmask 10111100
          -102 callsubr
          endchar
        </CharString>
        <CharString name="umacron">
          -62 callgsubr
          146 106 -19 callsubr
          -28 259 -27 95 callgsubr
          hintmask 10110100
          167 636 -49 callsubr
          hintmask 01111010
          241 -742 -70 callsubr
          hintmask 10111010
          -102 callsubr
          endchar
        </CharString>
        <CharString name="underscore">
          -251 -179 95 hstem
          0 374 vstem
          -179 vmoveto
          137 callgsubr
          endchar
        </CharString>
        <CharString name="underscoredbl">
          -251 -289 95 27 95 hstemhm
          0 374 161 callgsubr
          -167 vmoveto
          137 callgsubr
          hintmask 10100000
          -217 vmoveto
          137 callgsubr
          endchar
        </CharString>
        <CharString name="uni00AD">
          65 callsubr
        </CharString>
        <CharString name="uni00B2">
          -255 316 74 233 73 hstem
          48 81 109 84 vstem
          129 406 rmoveto
          -68 callsubr
          74 -193 vlineto
          endchar
        </CharString>
        <CharString name="uni00B3">
          -260 307 73 90 66 87 73 hstemhm
          104 155 -34 85 -81 85 hintmask 11100100
          162 307 rmoveto
          126 26 45 65 hvcurveto
          hintmask 11110000
          137 callsubr
          4 vlineto
          hintmask 11101000
          -52 callsubr
          hintmask 11110000
          -73 -66 hlineto
          hintmask 11100100
          11 callgsubr
          -68 vlineto
          -7 37 49 -5 35 hhcurveto
          endchar
        </CharString>
        <CharString name="uni00B5">
          -35 callsubr
        </CharString>
        <CharString name="uni00B9">
          -365 688 -20 hstem
          111 83 vstem
          -22 callsubr
          endchar
        </CharString>
        <CharString name="uni0162">
          -45 21 -21 576 87 callgsubr
          22 688 rmoveto
          -112 204 -576 20 122 callgsubr
          24 576 204 112 hlineto
          endchar
        </CharString>
        <CharString name="uni0163">
          -242 82 callgsubr
          hstem
          122 120 vstem
          242 510 rmoveto
          148 -120 -148 -100 -100 100 -410 16 122 callgsubr
          20 410 118 100 hlineto
          endchar
        </CharString>
        <CharString name="uni018F">
          64 -8 108 153 callsubr
          187 108 100 callgsubr
          303 -20 callsubr
          329 696 rmoveto
          -58 -76 -6 -9 -48 hvcurveto
          -103 vlineto
          6 41 62 4 47 hhcurveto
          168 27 -16 -171 4 hvcurveto
          -431 -57 hlineto
          -280 11 -72 268 268 12 72 280 280 -37 72 -258 vhcurveto
          15 -596 rmoveto
          -135 -14 4 189 -2 hvcurveto
          303 hlineto
          -189 -2 -15 -4 -135 hhcurveto
          endchar
        </CharString>
        <CharString name="uni019D">
          19 callsubr
          -742 hlineto
          116 callgsubr
          495 4 vlineto
          302 -466 rlineto
          123 688 hlineto
          endchar
        </CharString>
        <CharString name="uni01C4">
          670 0 107 473 115 callsubr
          939 744 -98 callsubr
          -755 -881 rmoveto
          -28 callgsubr
        </CharString>
        <CharString name="uni01C5">
          118 callsubr
          -89 144 75 callgsubr
          276 -10 callsubr
          hintmask 10101110
          890 599 -98 callsubr
          -706 -736 rmoveto
          -12 callsubr
          hvcurveto
          hintmask 01110110
          45 callsubr
          vhcurveto
          -23 callgsubr
          hintmask 10110110
          427 -108 rmoveto
          -82 callgsubr
          endchar
        </CharString>
        <CharString name="uni01C6">
          119 callgsubr
          81 144 125 callsubr
          hintmask 00000000
          hintmask 10100111
          15 callsubr
          hintmask 01010111
          10 callsubr
          hintmask 01001111
          -5 callgsubr
          hvcurveto
          hintmask 10100111
          -202 49 -60 129 vhcurveto
          hintmask 01100111
          549 607 -98 callsubr
          -51 -736 rmoveto
          -82 callgsubr
          hintmask 10001111
          -351 5 rmoveto
          -57 callgsubr
          -29 -14 -26 -14 -52 hhcurveto
          endchar
        </CharString>
        <CharString name="uni01C7">
          295 0 112 576 -20 -48 callgsubr
          495 -20 callsubr
          87 hmoveto
          3 callsubr
          480 -586 -69 callsubr
        </CharString>
        <CharString name="uni01C8">
          184 -200 92 108 112 398 -20 140 113 -55 -20 75 callgsubr
          399 95 callgsubr
          hintmask 11110110
          612 -13 callsubr
          -525 -743 rmoveto
          425 112 -297 hlineto
          hintmask 11101110
          576 -128 vlineto
          437 -888 -72 callgsubr
        </CharString>
        <CharString name="uni01C9">
          -85 59 callsubr
          161 callsubr
          150 120 160 callgsubr
          268 -113 rmoveto
          124 113 -124 hlineto
          -88 -943 -72 callgsubr
        </CharString>
        <CharString name="uni01CA">
          482 0 102 -81 -36 callsubr
          hstemhm
          29 callsubr
          258 128 hintmask 01111100
          34 callsubr
          hintmask 10111100
          540 -364 -69 callsubr
        </CharString>
        <CharString name="uni01CB">
          371 59 callsubr
          -55 -20 hstemhm
          29 callsubr
          162 95 callgsubr
          hintmask 11110111
          799 -13 callsubr
          -283 -743 rmoveto
          123 hlineto
          hintmask 11101111
          56 callsubr
          497 -666 -72 callgsubr
        </CharString>
        <CharString name="uni01CC">
          239 -200 92 129 25 callgsubr
          112 113 -50 callsubr
          150 120 hintmask 11011111
          667 -13 callsubr
          -268 -743 rmoveto
          -65 callsubr
          hintmask 11101111
          -54 callsubr
          hintmask 11011111
          -61 callsubr
          180 -470 rmoveto
          166 44 14 157 hvcurveto
          hintmask 11101111
          539 -120 -564 31 callsubr
          endchar
        </CharString>
        <CharString name="uni01CD">
          -79 callsubr
          56 144 150 callgsubr
          282 744 -98 callsubr
          349 -881 -99 callgsubr
        </CharString>
        <CharString name="uni01CD.ss01">
          -82 callsubr
          48 144 -41 callgsubr
          291 744 -98 callsubr
          298 -881 rmoveto
          -106 callgsubr
          endchar
        </CharString>
        <CharString name="uni01CE">
          -81 callgsubr
          81 144 27 callgsubr
          223 599 -98 callsubr
          75 -744 -72 callsubr
          hintmask 01111110
          -107 callsubr
          hintmask 10111110
          -100 callgsubr
          endchar
        </CharString>
        <CharString name="uni01CF">
          -4 callgsubr
          76 144 callsubr
          91 744 -98 callsubr
          93 -881 -36 callgsubr
        </CharString>
        <CharString name="uni01D0">
          -11 callsubr
          109 144 52 callgsubr
          75 599 -98 callsubr
          97 -736 -37 callsubr
        </CharString>
        <CharString name="uni01D1">
          84 -71 callsubr
          48 144 -2 callsubr
          295 744 -98 callsubr
          156 -889 -105 callsubr
          endchar
        </CharString>
        <CharString name="uni01D2">
          -51 -46 callsubr
          81 144 23 callsubr
          227 599 -98 callsubr
          157 -744 -102 callgsubr
        </CharString>
        <CharString name="uni01D3">
          -42 callgsubr
          76 144 -41 callgsubr
          291 744 -98 callsubr
          298 -193 rmoveto
          -418 vlineto
          -101 callsubr
          382 vlineto
          endchar
        </CharString>
        <CharString name="uni01D4">
          -62 callgsubr
          109 144 -50 callsubr
          hintmask 10111100
          237 599 -98 callsubr
          hintmask 01111100
          268 -736 -70 callsubr
          hintmask 10111100
          -102 callsubr
          endchar
        </CharString>
        <CharString name="uni01D5">
          -42 callgsubr
          110 97 33 106 -21 callgsubr
          -8 105 91 105 -9 134 callgsubr
          223 908 -49 callsubr
          -23 -236 -85 callsubr
          hintmask 11111001
          96 -187 rmoveto
          -418 vlineto
          -101 callsubr
          382 vlineto
          endchar
        </CharString>
        <CharString name="uni01D6">
          -62 callgsubr
          143 97 66 106 112 callsubr
          hintmask 1011101100000000
          169 796 -49 callsubr
          -23 -269 -85 callsubr
          hintmask 0111110010000000
          58 callsubr
          hintmask 1011110010000000
          -102 callsubr
          endchar
        </CharString>
</ttFont>
